<?xml version="1.0" encoding="utf-8"?>
<!-- Generator: Adobe Illustrator 24.3.0, SVG Export Plug-In . SVG Version: 6.00 Build 0)  -->
<svg version="1.1" xmlns="http://www.w3.org/2000/svg" xmlns:xlink="http://www.w3.org/1999/xlink" x="0px" y="0px"
	 viewBox="0 0 1280 1024" style="enable-background:new 0 0 1280 1024;" xml:space="preserve">
<style type="text/css">
	.st0{fill:#222222;}
	.st1{fill:#E3E3E3;}
	.st2{font-family:'Audiowide-Regular';}
	.st3{font-size:130.7148px;}
</style>
<g id="Layer_1">
	<g>
		<rect x="0.5" y="0.5" width="1279" height="1023"/>
		<path d="M1279,1v1022H1V1H1279 M1280,0H0v1024h1280V0L1280,0z"/>
	</g>
	<g>
		<g>
			<rect x="188.5" y="304.74" class="st0" width="447.17" height="447.17"/>
			<path d="M635.17,305.24V751.4H189V305.24H635.17 M636.17,304.24H188V752.4h448.17V304.24L636.17,304.24z"/>
		</g>
		<text transform="matrix(1 0 0 1 314.667 528.3184)" class="st1 st2 st3">TECHMAN</text>
		<g>
			<g>
				<path class="st1" d="M325.46,586.91c2.35,0,4.46,0.59,6.33,1.76c1.87,1.18,3.35,2.8,4.44,4.88s1.63,4.46,1.63,7.16
					c0,2.66-0.54,5.04-1.63,7.13c-1.09,2.09-2.56,3.74-4.41,4.93c-1.85,1.19-3.93,1.79-6.25,1.79c-1.28,0-2.48-0.2-3.6-0.6
					c-1.12-0.4-2.14-0.92-3.06-1.56c-0.92-0.64-1.69-1.36-2.31-2.15c-0.62-0.79-1.07-1.61-1.35-2.44l1.14-0.67v15.25
					c0,0.59-0.19,1.09-0.57,1.5c-0.38,0.42-0.88,0.62-1.5,0.62c-0.59,0-1.08-0.2-1.48-0.6c-0.4-0.4-0.6-0.91-0.6-1.53V589.3
					c0-0.62,0.2-1.13,0.6-1.53c0.4-0.4,0.89-0.6,1.48-0.6c0.62,0,1.12,0.2,1.5,0.6c0.38,0.4,0.57,0.91,0.57,1.53v4.56l-0.78-0.42
					c0.24-0.86,0.67-1.69,1.27-2.49c0.6-0.79,1.35-1.5,2.23-2.1c0.88-0.6,1.87-1.08,2.96-1.43
					C323.15,587.09,324.28,586.91,325.46,586.91z M324.99,590.75c-1.73,0-3.26,0.43-4.59,1.3c-1.33,0.86-2.37,2.04-3.11,3.53
					c-0.74,1.49-1.12,3.2-1.12,5.13c0,1.9,0.37,3.61,1.12,5.13c0.74,1.52,1.78,2.72,3.11,3.58c1.33,0.87,2.86,1.3,4.59,1.3
					c1.73,0,3.25-0.43,4.56-1.3c1.31-0.86,2.35-2.06,3.11-3.58c0.76-1.52,1.14-3.23,1.14-5.13c0-1.94-0.38-3.65-1.14-5.13
					c-0.76-1.49-1.8-2.66-3.11-3.53C328.24,591.19,326.72,590.75,324.99,590.75z"/>
				<path class="st1" d="M345.89,614.15c-0.59,0-1.08-0.21-1.48-0.62c-0.4-0.42-0.6-0.92-0.6-1.5v-22.56c0-0.62,0.2-1.13,0.6-1.53
					c0.4-0.4,0.89-0.6,1.48-0.6c0.62,0,1.12,0.2,1.5,0.6c0.38,0.4,0.57,0.91,0.57,1.53v6.79l-0.62-1.09
					c0.21-1.07,0.58-2.12,1.12-3.14c0.54-1.02,1.22-1.94,2.05-2.75s1.78-1.45,2.85-1.92c1.07-0.47,2.25-0.7,3.53-0.7
					c0.76,0,1.46,0.18,2.1,0.54c0.64,0.36,0.96,0.87,0.96,1.53c0,0.73-0.19,1.27-0.57,1.63c-0.38,0.36-0.81,0.54-1.3,0.54
					c-0.45,0-0.88-0.1-1.3-0.31c-0.42-0.21-0.93-0.31-1.56-0.31c-0.86,0-1.72,0.24-2.57,0.73c-0.85,0.49-1.63,1.15-2.33,2
					c-0.71,0.85-1.28,1.82-1.71,2.91c-0.43,1.09-0.65,2.26-0.65,3.5v12.6c0,0.59-0.2,1.09-0.6,1.5
					C346.97,613.94,346.48,614.15,345.89,614.15z"/>
				<path class="st1" d="M389.83,600.66c0,2.7-0.59,5.1-1.76,7.21c-1.18,2.11-2.78,3.77-4.8,4.98c-2.02,1.21-4.31,1.82-6.87,1.82
					c-2.52,0-4.81-0.6-6.85-1.82c-2.04-1.21-3.66-2.87-4.85-4.98c-1.19-2.11-1.79-4.51-1.79-7.21s0.6-5.1,1.79-7.21
					c1.19-2.11,2.81-3.77,4.85-4.98c2.04-1.21,4.32-1.82,6.85-1.82c2.56,0,4.85,0.61,6.87,1.82c2.02,1.21,3.62,2.87,4.8,4.98
					C389.24,595.56,389.83,597.96,389.83,600.66z M385.68,600.66c0-2-0.41-3.76-1.22-5.26c-0.81-1.5-1.92-2.7-3.32-3.58
					s-2.98-1.32-4.75-1.32c-1.73,0-3.3,0.44-4.72,1.32c-1.42,0.88-2.53,2.07-3.35,3.58c-0.81,1.5-1.22,3.26-1.22,5.26
					c0,1.97,0.41,3.72,1.22,5.24c0.81,1.52,1.93,2.72,3.35,3.6c1.42,0.88,2.99,1.32,4.72,1.32c1.76,0,3.35-0.44,4.75-1.32
					s2.51-2.08,3.32-3.6C385.27,604.38,385.68,602.63,385.68,600.66z"/>
				<path class="st1" d="M406.84,586.66c1.49,0,2.87,0.25,4.15,0.75c1.28,0.5,2.39,1.15,3.35,1.95c0.95,0.8,1.69,1.63,2.23,2.49
					c0.54,0.87,0.8,1.68,0.8,2.44l-0.99-0.62v-4.51c0-0.59,0.19-1.08,0.57-1.48c0.38-0.4,0.88-0.6,1.5-0.6s1.12,0.2,1.5,0.6
					c0.38,0.4,0.57,0.89,0.57,1.48v22.72c0,2.83-0.6,5.2-1.79,7.08c-1.19,1.88-2.79,3.29-4.8,4.2c-2.01,0.92-4.24,1.37-6.69,1.37
					c-1.04,0-2.19-0.13-3.45-0.39c-1.26-0.26-2.38-0.59-3.35-0.99c-0.97-0.4-1.57-0.8-1.82-1.22c-0.52-0.38-0.85-0.78-0.99-1.19
					c-0.14-0.42-0.07-0.83,0.21-1.25c0.31-0.48,0.72-0.73,1.22-0.73c0.5,0,1.13,0.16,1.89,0.47c0.31,0.1,0.8,0.28,1.48,0.52
					c0.67,0.24,1.44,0.46,2.31,0.65c0.86,0.19,1.71,0.29,2.54,0.29c2.9,0,5.14-0.77,6.72-2.31c1.57-1.54,2.36-3.57,2.36-6.09v-4.82
					l0.57,0.26c-0.21,0.97-0.63,1.87-1.27,2.7c-0.64,0.83-1.41,1.56-2.31,2.2c-0.9,0.64-1.91,1.14-3.03,1.5
					c-1.12,0.36-2.26,0.54-3.4,0.54c-2.42,0-4.6-0.6-6.54-1.82c-1.94-1.21-3.47-2.87-4.59-4.98c-1.12-2.11-1.69-4.51-1.69-7.21
					c0-2.73,0.56-5.15,1.69-7.26c1.12-2.11,2.65-3.76,4.56-4.95C402.3,587.25,404.46,586.66,406.84,586.66z M407.41,590.49
					c-1.8,0-3.39,0.44-4.77,1.32c-1.38,0.88-2.47,2.09-3.27,3.63c-0.8,1.54-1.19,3.28-1.19,5.21c0,1.9,0.4,3.62,1.19,5.16
					c0.79,1.54,1.88,2.76,3.27,3.66c1.38,0.9,2.97,1.35,4.77,1.35c1.76,0,3.34-0.44,4.72-1.32c1.38-0.88,2.47-2.08,3.27-3.6
					s1.19-3.27,1.19-5.24c0-1.97-0.4-3.73-1.19-5.26s-1.88-2.74-3.27-3.61C410.75,590.93,409.18,590.49,407.41,590.49z"/>
				<path class="st1" d="M430.29,614.15c-0.59,0-1.08-0.21-1.48-0.62c-0.4-0.42-0.6-0.92-0.6-1.5v-22.56c0-0.62,0.2-1.13,0.6-1.53
					c0.4-0.4,0.89-0.6,1.48-0.6c0.62,0,1.12,0.2,1.5,0.6c0.38,0.4,0.57,0.91,0.57,1.53v6.79l-0.62-1.09
					c0.21-1.07,0.58-2.12,1.12-3.14c0.54-1.02,1.22-1.94,2.05-2.75s1.78-1.45,2.85-1.92c1.07-0.47,2.25-0.7,3.53-0.7
					c0.76,0,1.46,0.18,2.1,0.54c0.64,0.36,0.96,0.87,0.96,1.53c0,0.73-0.19,1.27-0.57,1.63c-0.38,0.36-0.81,0.54-1.3,0.54
					c-0.45,0-0.88-0.1-1.3-0.31c-0.42-0.21-0.93-0.31-1.56-0.31c-0.86,0-1.72,0.24-2.57,0.73c-0.85,0.49-1.63,1.15-2.33,2
					c-0.71,0.85-1.28,1.82-1.71,2.91c-0.43,1.09-0.65,2.26-0.65,3.5v12.6c0,0.59-0.2,1.09-0.6,1.5
					C431.37,613.94,430.87,614.15,430.29,614.15z"/>
				<path class="st1" d="M470.85,587.07c0.62,0,1.12,0.2,1.5,0.6c0.38,0.4,0.57,0.89,0.57,1.48v22.88c0,0.59-0.2,1.09-0.6,1.5
					c-0.4,0.42-0.89,0.62-1.48,0.62c-0.62,0-1.12-0.21-1.5-0.62c-0.38-0.42-0.57-0.92-0.57-1.5v-4.93l0.99-0.1
					c0,0.8-0.26,1.63-0.78,2.52c-0.52,0.88-1.23,1.71-2.13,2.49c-0.9,0.78-1.96,1.42-3.19,1.92c-1.23,0.5-2.53,0.75-3.92,0.75
					c-2.39,0-4.51-0.61-6.38-1.84c-1.87-1.23-3.35-2.9-4.44-5.01s-1.63-4.51-1.63-7.21c0-2.73,0.54-5.14,1.63-7.24
					c1.09-2.09,2.57-3.73,4.44-4.93c1.87-1.19,3.94-1.79,6.22-1.79c1.49,0,2.87,0.24,4.15,0.73c1.28,0.49,2.39,1.14,3.35,1.97
					c0.95,0.83,1.69,1.75,2.23,2.75c0.54,1,0.8,2.01,0.8,3.01l-1.35-0.31v-5.65c0-0.59,0.19-1.08,0.57-1.48
					C469.72,587.27,470.23,587.07,470.85,587.07z M460.16,610.83c1.73,0,3.26-0.45,4.59-1.35c1.33-0.9,2.37-2.12,3.11-3.66
					c0.74-1.54,1.12-3.28,1.12-5.21c0-1.9-0.37-3.61-1.12-5.14c-0.74-1.52-1.78-2.73-3.11-3.63c-1.33-0.9-2.86-1.35-4.59-1.35
					c-1.69,0-3.21,0.44-4.54,1.32c-1.33,0.88-2.38,2.08-3.14,3.6c-0.76,1.52-1.14,3.25-1.14,5.19s0.38,3.67,1.14,5.21
					c0.76,1.54,1.81,2.76,3.14,3.66C456.96,610.38,458.47,610.83,460.16,610.83z"/>
				<path class="st1" d="M493.41,586.91c2.35,0,4.26,0.6,5.73,1.79c1.47,1.19,2.45,2.88,2.93,5.06h-0.78l0.36-0.93
					c0.42-0.97,1.12-1.9,2.13-2.8c1-0.9,2.16-1.64,3.48-2.23c1.31-0.59,2.68-0.88,4.1-0.88c2.28,0,4.08,0.49,5.39,1.48
					c1.31,0.99,2.26,2.3,2.83,3.94c0.57,1.64,0.86,3.48,0.86,5.52v14.16c0,0.59-0.2,1.09-0.6,1.5c-0.4,0.42-0.91,0.62-1.53,0.62
					c-0.59,0-1.08-0.21-1.48-0.62c-0.4-0.42-0.6-0.92-0.6-1.5v-14.06c0-1.31-0.19-2.52-0.57-3.61c-0.38-1.09-1.02-1.96-1.92-2.62
					c-0.9-0.66-2.11-0.99-3.63-0.99c-1.38,0-2.66,0.33-3.84,0.99c-1.18,0.66-2.11,1.53-2.8,2.62c-0.69,1.09-1.04,2.29-1.04,3.61
					v14.06c0,0.59-0.19,1.09-0.57,1.5c-0.38,0.42-0.88,0.62-1.5,0.62c-0.62,0-1.12-0.21-1.5-0.62c-0.38-0.42-0.57-0.92-0.57-1.5
					v-14.21c0-1.28-0.19-2.46-0.57-3.53c-0.38-1.07-1-1.93-1.87-2.57c-0.86-0.64-2.04-0.96-3.53-0.96c-1.38,0-2.65,0.32-3.79,0.96
					c-1.14,0.64-2.06,1.5-2.75,2.57c-0.69,1.07-1.04,2.25-1.04,3.53v14.21c0,0.59-0.2,1.09-0.6,1.5c-0.4,0.42-0.89,0.62-1.48,0.62
					c-0.59,0-1.08-0.21-1.48-0.62c-0.4-0.42-0.6-0.92-0.6-1.5v-22.56c0-0.62,0.2-1.13,0.6-1.53c0.4-0.4,0.89-0.6,1.48-0.6
					c0.62,0,1.12,0.2,1.5,0.6c0.38,0.4,0.57,0.91,0.57,1.53v3.89l-1.14,1.24c0.14-0.9,0.49-1.8,1.06-2.7
					c0.57-0.9,1.31-1.73,2.2-2.49c0.9-0.76,1.9-1.37,3.01-1.82C490.99,587.14,492.17,586.91,493.41,586.91z"/>
				<path class="st1" d="M540.92,586.91c2.35,0,4.26,0.6,5.73,1.79c1.47,1.19,2.45,2.88,2.93,5.06h-0.78l0.36-0.93
					c0.42-0.97,1.12-1.9,2.13-2.8c1-0.9,2.16-1.64,3.48-2.23c1.31-0.59,2.68-0.88,4.1-0.88c2.28,0,4.08,0.49,5.39,1.48
					c1.31,0.99,2.26,2.3,2.83,3.94c0.57,1.64,0.86,3.48,0.86,5.52v14.16c0,0.59-0.2,1.09-0.6,1.5c-0.4,0.42-0.91,0.62-1.53,0.62
					c-0.59,0-1.08-0.21-1.48-0.62c-0.4-0.42-0.6-0.92-0.6-1.5v-14.06c0-1.31-0.19-2.52-0.57-3.61c-0.38-1.09-1.02-1.96-1.92-2.62
					c-0.9-0.66-2.11-0.99-3.63-0.99c-1.38,0-2.66,0.33-3.84,0.99c-1.18,0.66-2.11,1.53-2.8,2.62c-0.69,1.09-1.04,2.29-1.04,3.61
					v14.06c0,0.59-0.19,1.09-0.57,1.5c-0.38,0.42-0.88,0.62-1.5,0.62c-0.62,0-1.12-0.21-1.5-0.62c-0.38-0.42-0.57-0.92-0.57-1.5
					v-14.21c0-1.28-0.19-2.46-0.57-3.53c-0.38-1.07-1-1.93-1.87-2.57c-0.86-0.64-2.04-0.96-3.53-0.96c-1.38,0-2.65,0.32-3.79,0.96
					c-1.14,0.64-2.06,1.5-2.75,2.57c-0.69,1.07-1.04,2.25-1.04,3.53v14.21c0,0.59-0.2,1.09-0.6,1.5c-0.4,0.42-0.89,0.62-1.48,0.62
					c-0.59,0-1.08-0.21-1.48-0.62c-0.4-0.42-0.6-0.92-0.6-1.5v-22.56c0-0.62,0.2-1.13,0.6-1.53c0.4-0.4,0.89-0.6,1.48-0.6
					c0.62,0,1.12,0.2,1.5,0.6c0.38,0.4,0.57,0.91,0.57,1.53v3.89l-1.14,1.24c0.14-0.9,0.49-1.8,1.06-2.7
					c0.57-0.9,1.31-1.73,2.2-2.49c0.9-0.76,1.9-1.37,3.01-1.82C538.5,587.14,539.68,586.91,540.92,586.91z"/>
				<path class="st1" d="M577.49,583.44c-0.86,0-1.5-0.17-1.92-0.52c-0.42-0.34-0.62-0.88-0.62-1.61v-0.73
					c0-0.73,0.22-1.26,0.67-1.61c0.45-0.34,1.09-0.52,1.92-0.52c0.83,0,1.45,0.17,1.87,0.52c0.42,0.35,0.62,0.88,0.62,1.61v0.73
					c0,0.73-0.22,1.26-0.65,1.61C578.95,583.27,578.32,583.44,577.49,583.44z M579.62,612.02c0,0.59-0.2,1.09-0.6,1.5
					c-0.4,0.42-0.89,0.62-1.48,0.62c-0.62,0-1.13-0.21-1.53-0.62c-0.4-0.42-0.6-0.92-0.6-1.5v-22.98c0-0.59,0.2-1.09,0.6-1.5
					c0.4-0.42,0.91-0.62,1.53-0.62c0.59,0,1.08,0.21,1.48,0.62c0.4,0.41,0.6,0.92,0.6,1.5V612.02z"/>
				<path class="st1" d="M600.42,586.66c2.35,0,4.2,0.48,5.55,1.45c1.35,0.97,2.31,2.27,2.88,3.89c0.57,1.63,0.86,3.46,0.86,5.5
					v14.52c0,0.59-0.2,1.09-0.6,1.5c-0.4,0.42-0.89,0.62-1.48,0.62c-0.62,0-1.12-0.21-1.5-0.62c-0.38-0.42-0.57-0.92-0.57-1.5V597.6
					c0-1.31-0.2-2.51-0.6-3.58c-0.4-1.07-1.06-1.93-2-2.57s-2.18-0.96-3.73-0.96c-1.45,0-2.78,0.32-3.99,0.96
					c-1.21,0.64-2.18,1.5-2.9,2.57c-0.73,1.07-1.09,2.27-1.09,3.58v14.42c0,0.59-0.2,1.09-0.6,1.5c-0.4,0.42-0.89,0.62-1.48,0.62
					c-0.59,0-1.08-0.21-1.48-0.62c-0.4-0.42-0.6-0.92-0.6-1.5v-22.56c0-0.62,0.2-1.13,0.6-1.53c0.4-0.4,0.89-0.6,1.48-0.6
					c0.62,0,1.12,0.2,1.5,0.6c0.38,0.4,0.57,0.91,0.57,1.53v3.63l-1.04,1.14c0.17-0.9,0.57-1.81,1.19-2.72
					c0.62-0.92,1.4-1.74,2.33-2.46s1.97-1.3,3.11-1.74S599.18,586.66,600.42,586.66z"/>
				<path class="st1" d="M628.38,586.66c1.49,0,2.87,0.25,4.15,0.75c1.28,0.5,2.39,1.15,3.35,1.95c0.95,0.8,1.69,1.63,2.23,2.49
					c0.54,0.87,0.8,1.68,0.8,2.44l-0.99-0.62v-4.51c0-0.59,0.19-1.08,0.57-1.48c0.38-0.4,0.88-0.6,1.5-0.6s1.12,0.2,1.5,0.6
					c0.38,0.4,0.57,0.89,0.57,1.48v22.72c0,2.83-0.6,5.2-1.79,7.08c-1.19,1.88-2.79,3.29-4.8,4.2c-2.01,0.92-4.24,1.37-6.69,1.37
					c-1.04,0-2.19-0.13-3.45-0.39c-1.26-0.26-2.38-0.59-3.35-0.99c-0.97-0.4-1.57-0.8-1.82-1.22c-0.52-0.38-0.85-0.78-0.99-1.19
					c-0.14-0.42-0.07-0.83,0.21-1.25c0.31-0.48,0.72-0.73,1.22-0.73c0.5,0,1.13,0.16,1.89,0.47c0.31,0.1,0.8,0.28,1.48,0.52
					c0.67,0.24,1.44,0.46,2.31,0.65c0.86,0.19,1.71,0.29,2.54,0.29c2.9,0,5.14-0.77,6.72-2.31c1.57-1.54,2.36-3.57,2.36-6.09v-4.82
					l0.57,0.26c-0.21,0.97-0.63,1.87-1.27,2.7c-0.64,0.83-1.41,1.56-2.31,2.2c-0.9,0.64-1.91,1.14-3.03,1.5
					c-1.12,0.36-2.26,0.54-3.4,0.54c-2.42,0-4.6-0.6-6.54-1.82c-1.94-1.21-3.47-2.87-4.59-4.98c-1.12-2.11-1.69-4.51-1.69-7.21
					c0-2.73,0.56-5.15,1.69-7.26c1.12-2.11,2.65-3.76,4.56-4.95C623.84,587.25,625.99,586.66,628.38,586.66z M628.95,590.49
					c-1.8,0-3.39,0.44-4.77,1.32c-1.38,0.88-2.47,2.09-3.27,3.63c-0.8,1.54-1.19,3.28-1.19,5.21c0,1.9,0.4,3.62,1.19,5.16
					c0.79,1.54,1.88,2.76,3.27,3.66c1.38,0.9,2.97,1.35,4.77,1.35c1.76,0,3.34-0.44,4.72-1.32c1.38-0.88,2.47-2.08,3.27-3.6
					s1.19-3.27,1.19-5.24c0-1.97-0.4-3.73-1.19-5.26s-1.88-2.74-3.27-3.61C632.29,590.93,630.71,590.49,628.95,590.49z"/>
				<path class="st1" d="M665.88,583.44c-0.87,0-1.5-0.17-1.92-0.52c-0.41-0.34-0.62-0.88-0.62-1.61v-0.73
					c0-0.73,0.22-1.26,0.67-1.61c0.45-0.34,1.09-0.52,1.92-0.52s1.45,0.17,1.87,0.52c0.42,0.35,0.62,0.88,0.62,1.61v0.73
					c0,0.73-0.22,1.26-0.65,1.61C667.34,583.27,666.71,583.44,665.88,583.44z M668.01,612.02c0,0.59-0.2,1.09-0.6,1.5
					c-0.4,0.42-0.89,0.62-1.48,0.62c-0.62,0-1.13-0.21-1.53-0.62c-0.4-0.42-0.6-0.92-0.6-1.5v-22.98c0-0.59,0.2-1.09,0.6-1.5
					c0.4-0.42,0.91-0.62,1.53-0.62c0.59,0,1.08,0.21,1.48,0.62c0.4,0.41,0.6,0.92,0.6,1.5V612.02z"/>
				<path class="st1" d="M688.81,586.66c2.35,0,4.2,0.48,5.55,1.45c1.35,0.97,2.31,2.27,2.88,3.89c0.57,1.63,0.86,3.46,0.86,5.5
					v14.52c0,0.59-0.2,1.09-0.6,1.5s-0.89,0.62-1.48,0.62c-0.62,0-1.12-0.21-1.5-0.62c-0.38-0.42-0.57-0.92-0.57-1.5V597.6
					c0-1.31-0.2-2.51-0.6-3.58c-0.4-1.07-1.06-1.93-2-2.57s-2.18-0.96-3.73-0.96c-1.45,0-2.78,0.32-3.99,0.96
					c-1.21,0.64-2.18,1.5-2.91,2.57c-0.73,1.07-1.09,2.27-1.09,3.58v14.42c0,0.59-0.2,1.09-0.6,1.5s-0.89,0.62-1.48,0.62
					s-1.08-0.21-1.48-0.62s-0.6-0.92-0.6-1.5v-22.56c0-0.62,0.2-1.13,0.6-1.53s0.89-0.6,1.48-0.6c0.62,0,1.12,0.2,1.5,0.6
					c0.38,0.4,0.57,0.91,0.57,1.53v3.63l-1.04,1.14c0.17-0.9,0.57-1.81,1.19-2.72c0.62-0.92,1.4-1.74,2.33-2.46s1.97-1.3,3.11-1.74
					C686.37,586.87,687.56,586.66,688.81,586.66z"/>
				<path class="st1" d="M720.03,586.86c0.42,0,0.81,0.11,1.19,0.34c0.38,0.23,0.66,0.56,0.83,1.01l8.61,20.18l-0.83,0.42
					l8.71-20.59c0.38-0.93,1.04-1.38,1.97-1.35c0.52,0,0.97,0.17,1.35,0.52c0.38,0.35,0.57,0.8,0.57,1.35c0,0.21-0.03,0.4-0.08,0.57
					s-0.11,0.35-0.18,0.52l-10.01,22.98c-0.38,0.87-0.99,1.31-1.82,1.35c-0.45,0.07-0.87-0.02-1.27-0.26
					c-0.4-0.24-0.7-0.6-0.91-1.09l-10.01-22.98c-0.03-0.1-0.08-0.25-0.13-0.44c-0.05-0.19-0.08-0.39-0.08-0.6
					c0-0.45,0.18-0.88,0.54-1.3C718.87,587.07,719.38,586.86,720.03,586.86z"/>
				<path class="st1" d="M760.18,614.67c-2.77,0-5.19-0.59-7.26-1.76c-2.07-1.17-3.69-2.79-4.85-4.85
					c-1.16-2.06-1.74-4.44-1.74-7.13c0-3.01,0.6-5.58,1.79-7.7c1.19-2.13,2.75-3.75,4.67-4.88c1.92-1.12,3.95-1.69,6.09-1.69
					c1.63,0,3.17,0.29,4.64,0.88c1.47,0.59,2.78,1.45,3.94,2.59c1.16,1.14,2.08,2.49,2.78,4.05c0.69,1.56,1.05,3.32,1.09,5.29
					c-0.04,0.55-0.26,1.01-0.67,1.38s-0.9,0.54-1.45,0.54h-20.49l-0.93-3.58h19.97l-0.83,0.73v-1.14c-0.14-1.42-0.61-2.64-1.43-3.66
					c-0.81-1.02-1.8-1.81-2.96-2.36c-1.16-0.55-2.38-0.83-3.66-0.83c-1.04,0-2.07,0.19-3.09,0.57s-1.94,0.97-2.75,1.76
					c-0.81,0.8-1.46,1.83-1.95,3.11c-0.48,1.28-0.73,2.82-0.73,4.62c0,2.01,0.41,3.77,1.22,5.29s1.95,2.72,3.4,3.6
					s3.13,1.32,5.03,1.32c1.25,0,2.31-0.16,3.19-0.47c0.88-0.31,1.65-0.7,2.31-1.17c0.66-0.47,1.21-0.94,1.66-1.43
					c0.45-0.31,0.88-0.47,1.3-0.47c0.52,0,0.95,0.17,1.3,0.52s0.52,0.76,0.52,1.25c0,0.59-0.29,1.12-0.88,1.61
					c-0.97,1.07-2.28,2.01-3.94,2.8C763.81,614.27,762.05,614.67,760.18,614.67z"/>
				<path class="st1" d="M779.17,583.44c-0.87,0-1.5-0.17-1.92-0.52c-0.41-0.34-0.62-0.88-0.62-1.61v-0.73
					c0-0.73,0.22-1.26,0.67-1.61c0.45-0.34,1.09-0.52,1.92-0.52s1.45,0.17,1.87,0.52c0.42,0.35,0.62,0.88,0.62,1.61v0.73
					c0,0.73-0.22,1.26-0.65,1.61C780.63,583.27,780,583.44,779.17,583.44z M781.29,612.02c0,0.59-0.2,1.09-0.6,1.5
					c-0.4,0.42-0.89,0.62-1.48,0.62c-0.62,0-1.13-0.21-1.53-0.62c-0.4-0.42-0.6-0.92-0.6-1.5v-22.98c0-0.59,0.2-1.09,0.6-1.5
					c0.4-0.42,0.91-0.62,1.53-0.62c0.59,0,1.08,0.21,1.48,0.62c0.4,0.41,0.6,0.92,0.6,1.5V612.02z"/>
				<path class="st1" d="M802.09,586.66c2.35,0,4.2,0.48,5.55,1.45c1.35,0.97,2.31,2.27,2.88,3.89c0.57,1.63,0.86,3.46,0.86,5.5
					v14.52c0,0.59-0.2,1.09-0.6,1.5s-0.89,0.62-1.48,0.62c-0.62,0-1.12-0.21-1.5-0.62c-0.38-0.42-0.57-0.92-0.57-1.5V597.6
					c0-1.31-0.2-2.51-0.6-3.58c-0.4-1.07-1.06-1.93-2-2.57s-2.18-0.96-3.73-0.96c-1.45,0-2.78,0.32-3.99,0.96
					c-1.21,0.64-2.18,1.5-2.91,2.57c-0.73,1.07-1.09,2.27-1.09,3.58v14.42c0,0.59-0.2,1.09-0.6,1.5s-0.89,0.62-1.48,0.62
					s-1.08-0.21-1.48-0.62s-0.6-0.92-0.6-1.5v-22.56c0-0.62,0.2-1.13,0.6-1.53s0.89-0.6,1.48-0.6c0.62,0,1.12,0.2,1.5,0.6
					c0.38,0.4,0.57,0.91,0.57,1.53v3.63l-1.04,1.14c0.17-0.9,0.57-1.81,1.19-2.72c0.62-0.92,1.4-1.74,2.33-2.46s1.97-1.3,3.11-1.74
					C799.65,586.87,800.85,586.66,802.09,586.66z"/>
				<path class="st1" d="M817.5,609.89c-0.28-0.45-0.41-0.92-0.39-1.43c0.02-0.5,0.3-0.94,0.86-1.32c0.38-0.24,0.8-0.34,1.27-0.31
					c0.47,0.03,0.89,0.26,1.27,0.67c0.97,1.14,2.07,2.05,3.32,2.72c1.25,0.67,2.77,1.01,4.56,1.01c0.8-0.03,1.62-0.17,2.46-0.42
					s1.56-0.67,2.13-1.27c0.57-0.6,0.86-1.41,0.86-2.41c0-0.97-0.29-1.74-0.88-2.31c-0.59-0.57-1.36-1.04-2.31-1.4
					c-0.95-0.36-1.96-0.68-3.03-0.96c-1.14-0.31-2.27-0.66-3.37-1.04c-1.11-0.38-2.1-0.87-2.98-1.48c-0.88-0.6-1.59-1.37-2.13-2.28
					s-0.8-2.05-0.8-3.4c0-1.56,0.42-2.91,1.27-4.05c0.85-1.14,1.98-2.02,3.4-2.65c1.42-0.62,2.99-0.93,4.72-0.93
					c0.97,0,1.98,0.11,3.03,0.34c1.05,0.23,2.08,0.61,3.09,1.14c1,0.54,1.88,1.27,2.65,2.21c0.31,0.35,0.48,0.78,0.52,1.3
					c0.03,0.52-0.19,0.99-0.67,1.4c-0.38,0.28-0.8,0.41-1.27,0.39c-0.47-0.02-0.86-0.18-1.17-0.49c-0.76-0.9-1.69-1.58-2.78-2.05
					c-1.09-0.47-2.29-0.7-3.61-0.7c-0.8,0-1.59,0.13-2.39,0.39c-0.8,0.26-1.46,0.67-2,1.22c-0.54,0.55-0.8,1.33-0.8,2.33
					c0.03,0.93,0.34,1.7,0.93,2.28c0.59,0.59,1.38,1.06,2.39,1.43s2.11,0.72,3.32,1.06c1.11,0.28,2.17,0.6,3.19,0.96
					c1.02,0.36,1.95,0.84,2.78,1.43c0.83,0.59,1.49,1.34,1.97,2.26s0.73,2.07,0.73,3.45c0,1.59-0.45,2.97-1.35,4.12
					c-0.9,1.16-2.08,2.04-3.55,2.65c-1.47,0.6-3.05,0.91-4.75,0.91c-1.9,0-3.79-0.35-5.65-1.06
					C820.45,612.89,818.85,611.66,817.5,609.89z"/>
			</g>
		</g>
	</g>
</g>
<g id="Layer_2">
</g>
</svg>
