<?xml version="1.0" encoding="utf-8"?>
<!-- Generator: Adobe Illustrator 24.3.0, SVG Export Plug-In . SVG Version: 6.00 Build 0)  -->
<svg version="1.1" xmlns="http://www.w3.org/2000/svg" xmlns:xlink="http://www.w3.org/1999/xlink" x="0px" y="0px"
	 viewBox="0 0 149 150" style="enable-background:new 0 0 149 150;" xml:space="preserve">
<style type="text/css">
	.st0{fill:#222222;}
	.st1{fill:#E3E3E3;}
	.st2{font-family:'Audiowide-Regular';}
	.st3{font-size:21.1047px;}
</style>
<g id="Layer_1">
	<g>
		<rect x="0.5" y="0.5" width="148" height="149"/>
		<path d="M148,1v148H1V1H148 M149,0H0v150h149V0L149,0z"/>
	</g>
	<g>
		<g>
			<rect x="4.39" y="33.5" class="st0" width="71.36" height="71.36"/>
			<path d="M75.25,34v70.36H4.89V34H75.25 M76.25,33H3.89v72.36h72.36V33L76.25,33z"/>
		</g>
		<text transform="matrix(1 0 0 1 24.3379 69.1787)" class="st1 st2 st3">TECHMAN</text>
		<g>
			<g>
				<path class="st1" d="M26.08,78.64c0.38,0,0.72,0.09,1.02,0.28c0.3,0.19,0.54,0.45,0.72,0.79s0.26,0.72,0.26,1.16
					c0,0.43-0.09,0.81-0.26,1.15s-0.41,0.6-0.71,0.8c-0.3,0.19-0.64,0.29-1.01,0.29c-0.21,0-0.4-0.03-0.58-0.1s-0.35-0.15-0.49-0.25
					s-0.27-0.22-0.37-0.35c-0.1-0.13-0.17-0.26-0.22-0.39l0.18-0.11v2.46c0,0.09-0.03,0.18-0.09,0.24c-0.06,0.07-0.14,0.1-0.24,0.1
					c-0.09,0-0.17-0.03-0.24-0.1c-0.06-0.06-0.1-0.15-0.1-0.25v-5.34c0-0.1,0.03-0.18,0.1-0.25c0.06-0.06,0.14-0.1,0.24-0.1
					c0.1,0,0.18,0.03,0.24,0.1c0.06,0.06,0.09,0.15,0.09,0.25v0.74l-0.13-0.07c0.04-0.14,0.11-0.27,0.21-0.4
					c0.1-0.13,0.22-0.24,0.36-0.34c0.14-0.1,0.3-0.17,0.48-0.23C25.71,78.67,25.89,78.64,26.08,78.64z M26.01,79.26
					c-0.28,0-0.53,0.07-0.74,0.21c-0.22,0.14-0.38,0.33-0.5,0.57c-0.12,0.24-0.18,0.52-0.18,0.83c0,0.31,0.06,0.58,0.18,0.83
					c0.12,0.25,0.29,0.44,0.5,0.58c0.21,0.14,0.46,0.21,0.74,0.21c0.28,0,0.52-0.07,0.74-0.21c0.21-0.14,0.38-0.33,0.5-0.58
					c0.12-0.25,0.18-0.52,0.18-0.83c0-0.31-0.06-0.59-0.18-0.83c-0.12-0.24-0.29-0.43-0.5-0.57C26.53,79.33,26.28,79.26,26.01,79.26
					z"/>
				<path class="st1" d="M29.38,83.04c-0.09,0-0.17-0.03-0.24-0.1c-0.06-0.07-0.1-0.15-0.1-0.24v-3.64c0-0.1,0.03-0.18,0.1-0.25
					c0.06-0.06,0.14-0.1,0.24-0.1c0.1,0,0.18,0.03,0.24,0.1c0.06,0.06,0.09,0.15,0.09,0.25v1.1l-0.1-0.18
					c0.03-0.17,0.09-0.34,0.18-0.51c0.09-0.16,0.2-0.31,0.33-0.44c0.13-0.13,0.29-0.23,0.46-0.31c0.17-0.08,0.36-0.11,0.57-0.11
					c0.12,0,0.24,0.03,0.34,0.09s0.15,0.14,0.15,0.25c0,0.12-0.03,0.21-0.09,0.26c-0.06,0.06-0.13,0.09-0.21,0.09
					c-0.07,0-0.14-0.02-0.21-0.05c-0.07-0.03-0.15-0.05-0.25-0.05c-0.14,0-0.28,0.04-0.41,0.12c-0.14,0.08-0.26,0.19-0.38,0.32
					c-0.11,0.14-0.21,0.29-0.28,0.47c-0.07,0.18-0.1,0.36-0.1,0.56v2.04c0,0.1-0.03,0.18-0.1,0.24S29.48,83.04,29.38,83.04z"/>
				<path class="st1" d="M36.47,80.86c0,0.44-0.1,0.82-0.28,1.16c-0.19,0.34-0.45,0.61-0.77,0.8s-0.7,0.29-1.11,0.29
					c-0.41,0-0.78-0.1-1.11-0.29c-0.33-0.2-0.59-0.46-0.78-0.8c-0.19-0.34-0.29-0.73-0.29-1.16s0.1-0.82,0.29-1.16
					c0.19-0.34,0.45-0.61,0.78-0.8c0.33-0.2,0.7-0.29,1.11-0.29c0.41,0,0.78,0.1,1.11,0.29s0.58,0.46,0.77,0.8
					C36.38,80.03,36.47,80.42,36.47,80.86z M35.8,80.86c0-0.32-0.07-0.61-0.2-0.85c-0.13-0.24-0.31-0.44-0.54-0.58
					s-0.48-0.21-0.77-0.21c-0.28,0-0.53,0.07-0.76,0.21s-0.41,0.33-0.54,0.58c-0.13,0.24-0.2,0.53-0.2,0.85
					c0,0.32,0.07,0.6,0.2,0.85c0.13,0.25,0.31,0.44,0.54,0.58c0.23,0.14,0.48,0.21,0.76,0.21c0.28,0,0.54-0.07,0.77-0.21
					c0.23-0.14,0.4-0.34,0.54-0.58C35.74,81.46,35.8,81.18,35.8,80.86z"/>
				<path class="st1" d="M39.22,78.6c0.24,0,0.46,0.04,0.67,0.12c0.21,0.08,0.39,0.19,0.54,0.31c0.15,0.13,0.27,0.26,0.36,0.4
					c0.09,0.14,0.13,0.27,0.13,0.39l-0.16-0.1V79c0-0.09,0.03-0.17,0.09-0.24s0.14-0.1,0.24-0.1c0.1,0,0.18,0.03,0.24,0.1
					s0.09,0.14,0.09,0.24v3.67c0,0.46-0.1,0.84-0.29,1.14c-0.19,0.3-0.45,0.53-0.77,0.68c-0.32,0.15-0.68,0.22-1.08,0.22
					c-0.17,0-0.35-0.02-0.56-0.06c-0.2-0.04-0.38-0.09-0.54-0.16c-0.16-0.06-0.25-0.13-0.29-0.2c-0.08-0.06-0.14-0.13-0.16-0.19
					c-0.02-0.07-0.01-0.13,0.03-0.2c0.05-0.08,0.12-0.12,0.2-0.12s0.18,0.03,0.31,0.08c0.05,0.02,0.13,0.04,0.24,0.08
					s0.23,0.07,0.37,0.1c0.14,0.03,0.28,0.05,0.41,0.05c0.47,0,0.83-0.13,1.08-0.37c0.25-0.25,0.38-0.58,0.38-0.98v-0.78L40.85,82
					c-0.03,0.16-0.1,0.3-0.21,0.44c-0.1,0.13-0.23,0.25-0.37,0.36c-0.15,0.1-0.31,0.18-0.49,0.24s-0.36,0.09-0.55,0.09
					c-0.39,0-0.74-0.1-1.06-0.29c-0.31-0.2-0.56-0.46-0.74-0.8c-0.18-0.34-0.27-0.73-0.27-1.16c0-0.44,0.09-0.83,0.27-1.17
					c0.18-0.34,0.43-0.61,0.74-0.8C38.49,78.69,38.83,78.6,39.22,78.6z M39.31,79.22c-0.29,0-0.55,0.07-0.77,0.21
					s-0.4,0.34-0.53,0.59c-0.13,0.25-0.19,0.53-0.19,0.84c0,0.31,0.06,0.58,0.19,0.83c0.13,0.25,0.3,0.45,0.53,0.59
					c0.22,0.15,0.48,0.22,0.77,0.22c0.28,0,0.54-0.07,0.76-0.21c0.22-0.14,0.4-0.34,0.53-0.58c0.13-0.25,0.19-0.53,0.19-0.85
					s-0.06-0.6-0.19-0.85c-0.13-0.25-0.3-0.44-0.53-0.58C39.85,79.29,39.6,79.22,39.31,79.22z"/>
				<path class="st1" d="M43.01,83.04c-0.09,0-0.17-0.03-0.24-0.1c-0.06-0.07-0.1-0.15-0.1-0.24v-3.64c0-0.1,0.03-0.18,0.1-0.25
					c0.06-0.06,0.14-0.1,0.24-0.1c0.1,0,0.18,0.03,0.24,0.1c0.06,0.06,0.09,0.15,0.09,0.25v1.1l-0.1-0.18
					c0.03-0.17,0.09-0.34,0.18-0.51c0.09-0.16,0.2-0.31,0.33-0.44c0.13-0.13,0.29-0.23,0.46-0.31c0.17-0.08,0.36-0.11,0.57-0.11
					c0.12,0,0.24,0.03,0.34,0.09s0.15,0.14,0.15,0.25c0,0.12-0.03,0.21-0.09,0.26c-0.06,0.06-0.13,0.09-0.21,0.09
					c-0.07,0-0.14-0.02-0.21-0.05c-0.07-0.03-0.15-0.05-0.25-0.05c-0.14,0-0.28,0.04-0.41,0.12c-0.14,0.08-0.26,0.19-0.38,0.32
					c-0.11,0.14-0.21,0.29-0.28,0.47c-0.07,0.18-0.1,0.36-0.1,0.56v2.04c0,0.1-0.03,0.18-0.1,0.24S43.1,83.04,43.01,83.04z"/>
				<path class="st1" d="M49.55,78.66c0.1,0,0.18,0.03,0.24,0.1c0.06,0.06,0.09,0.14,0.09,0.24v3.69c0,0.1-0.03,0.18-0.1,0.24
					c-0.06,0.07-0.14,0.1-0.24,0.1c-0.1,0-0.18-0.03-0.24-0.1c-0.06-0.07-0.09-0.15-0.09-0.24V81.9l0.16-0.02
					c0,0.13-0.04,0.26-0.13,0.41c-0.08,0.14-0.2,0.28-0.34,0.4c-0.15,0.13-0.32,0.23-0.51,0.31c-0.2,0.08-0.41,0.12-0.63,0.12
					c-0.39,0-0.73-0.1-1.03-0.3s-0.54-0.47-0.72-0.81c-0.18-0.34-0.26-0.73-0.26-1.16c0-0.44,0.09-0.83,0.26-1.17
					c0.18-0.34,0.41-0.6,0.72-0.79c0.3-0.19,0.64-0.29,1-0.29c0.24,0,0.46,0.04,0.67,0.12s0.39,0.18,0.54,0.32
					c0.15,0.13,0.27,0.28,0.36,0.44s0.13,0.32,0.13,0.49l-0.22-0.05V79c0-0.09,0.03-0.17,0.09-0.24
					C49.37,78.7,49.45,78.66,49.55,78.66z M47.83,82.5c0.28,0,0.53-0.07,0.74-0.22c0.21-0.14,0.38-0.34,0.5-0.59
					c0.12-0.25,0.18-0.53,0.18-0.84c0-0.31-0.06-0.58-0.18-0.83c-0.12-0.25-0.29-0.44-0.5-0.59c-0.22-0.14-0.46-0.22-0.74-0.22
					c-0.27,0-0.52,0.07-0.73,0.21s-0.38,0.34-0.51,0.58c-0.12,0.25-0.18,0.53-0.18,0.84s0.06,0.59,0.18,0.84
					c0.12,0.25,0.29,0.45,0.51,0.59C47.31,82.43,47.56,82.5,47.83,82.5z"/>
				<path class="st1" d="M53.2,78.64c0.38,0,0.69,0.1,0.93,0.29c0.24,0.19,0.4,0.46,0.47,0.82h-0.13l0.06-0.15
					c0.07-0.16,0.18-0.31,0.34-0.45c0.16-0.14,0.35-0.26,0.56-0.36c0.21-0.09,0.43-0.14,0.66-0.14c0.37,0,0.66,0.08,0.87,0.24
					c0.21,0.16,0.36,0.37,0.46,0.64c0.09,0.26,0.14,0.56,0.14,0.89v2.29c0,0.1-0.03,0.18-0.1,0.24c-0.06,0.07-0.15,0.1-0.25,0.1
					c-0.1,0-0.17-0.03-0.24-0.1c-0.06-0.07-0.1-0.15-0.1-0.24v-2.27c0-0.21-0.03-0.41-0.09-0.58s-0.17-0.32-0.31-0.42
					c-0.15-0.11-0.34-0.16-0.59-0.16c-0.22,0-0.43,0.05-0.62,0.16c-0.19,0.11-0.34,0.25-0.45,0.42s-0.17,0.37-0.17,0.58v2.27
					c0,0.1-0.03,0.18-0.09,0.24c-0.06,0.07-0.14,0.1-0.24,0.1s-0.18-0.03-0.24-0.1c-0.06-0.07-0.09-0.15-0.09-0.24V80.4
					c0-0.21-0.03-0.4-0.09-0.57c-0.06-0.17-0.16-0.31-0.3-0.41s-0.33-0.16-0.57-0.16c-0.22,0-0.43,0.05-0.61,0.16
					c-0.18,0.1-0.33,0.24-0.44,0.41C51.86,80,51.8,80.19,51.8,80.4v2.29c0,0.1-0.03,0.18-0.1,0.24s-0.14,0.1-0.24,0.1
					c-0.09,0-0.17-0.03-0.24-0.1c-0.06-0.07-0.1-0.15-0.1-0.24v-3.64c0-0.1,0.03-0.18,0.1-0.25c0.06-0.06,0.14-0.1,0.24-0.1
					c0.1,0,0.18,0.03,0.24,0.1c0.06,0.06,0.09,0.15,0.09,0.25v0.63l-0.18,0.2c0.02-0.15,0.08-0.29,0.17-0.44
					c0.09-0.15,0.21-0.28,0.36-0.4c0.15-0.12,0.31-0.22,0.49-0.29C52.81,78.67,53,78.64,53.2,78.64z"/>
				<path class="st1" d="M60.87,78.64c0.38,0,0.69,0.1,0.93,0.29c0.24,0.19,0.4,0.46,0.47,0.82h-0.13l0.06-0.15
					c0.07-0.16,0.18-0.31,0.34-0.45c0.16-0.14,0.35-0.26,0.56-0.36c0.21-0.09,0.43-0.14,0.66-0.14c0.37,0,0.66,0.08,0.87,0.24
					c0.21,0.16,0.36,0.37,0.46,0.64c0.09,0.26,0.14,0.56,0.14,0.89v2.29c0,0.1-0.03,0.18-0.1,0.24c-0.06,0.07-0.15,0.1-0.25,0.1
					c-0.1,0-0.17-0.03-0.24-0.1c-0.06-0.07-0.1-0.15-0.1-0.24v-2.27c0-0.21-0.03-0.41-0.09-0.58s-0.17-0.32-0.31-0.42
					c-0.15-0.11-0.34-0.16-0.59-0.16c-0.22,0-0.43,0.05-0.62,0.16c-0.19,0.11-0.34,0.25-0.45,0.42s-0.17,0.37-0.17,0.58v2.27
					c0,0.1-0.03,0.18-0.09,0.24c-0.06,0.07-0.14,0.1-0.24,0.1s-0.18-0.03-0.24-0.1c-0.06-0.07-0.09-0.15-0.09-0.24V80.4
					c0-0.21-0.03-0.4-0.09-0.57c-0.06-0.17-0.16-0.31-0.3-0.41s-0.33-0.16-0.57-0.16c-0.22,0-0.43,0.05-0.61,0.16
					c-0.18,0.1-0.33,0.24-0.44,0.41c-0.11,0.17-0.17,0.36-0.17,0.57v2.29c0,0.1-0.03,0.18-0.1,0.24s-0.14,0.1-0.24,0.1
					c-0.09,0-0.17-0.03-0.24-0.1c-0.06-0.07-0.1-0.15-0.1-0.24v-3.64c0-0.1,0.03-0.18,0.1-0.25c0.06-0.06,0.14-0.1,0.24-0.1
					c0.1,0,0.18,0.03,0.24,0.1c0.06,0.06,0.09,0.15,0.09,0.25v0.63l-0.18,0.2c0.02-0.15,0.08-0.29,0.17-0.44
					c0.09-0.15,0.21-0.28,0.36-0.4c0.15-0.12,0.31-0.22,0.49-0.29C60.48,78.67,60.67,78.64,60.87,78.64z"/>
				<path class="st1" d="M66.77,78.08c-0.14,0-0.24-0.03-0.31-0.08c-0.07-0.06-0.1-0.14-0.1-0.26v-0.12c0-0.12,0.04-0.2,0.11-0.26
					c0.07-0.06,0.18-0.08,0.31-0.08c0.13,0,0.23,0.03,0.3,0.08c0.07,0.06,0.1,0.14,0.1,0.26v0.12c0,0.12-0.03,0.2-0.1,0.26
					C67.01,78.05,66.91,78.08,66.77,78.08z M67.12,82.69c0,0.1-0.03,0.18-0.1,0.24c-0.06,0.07-0.14,0.1-0.24,0.1
					c-0.1,0-0.18-0.03-0.25-0.1c-0.06-0.07-0.1-0.15-0.1-0.24v-3.71c0-0.09,0.03-0.18,0.1-0.24c0.06-0.07,0.15-0.1,0.25-0.1
					c0.09,0,0.17,0.03,0.24,0.1c0.06,0.07,0.1,0.15,0.1,0.24V82.69z"/>
				<path class="st1" d="M70.47,78.6c0.38,0,0.68,0.08,0.9,0.23c0.22,0.16,0.37,0.37,0.46,0.63s0.14,0.56,0.14,0.89v2.34
					c0,0.1-0.03,0.18-0.1,0.24s-0.14,0.1-0.24,0.1c-0.1,0-0.18-0.03-0.24-0.1c-0.06-0.07-0.09-0.15-0.09-0.24v-2.33
					c0-0.21-0.03-0.4-0.1-0.58c-0.06-0.17-0.17-0.31-0.32-0.42c-0.15-0.1-0.35-0.16-0.6-0.16c-0.23,0-0.45,0.05-0.65,0.16
					s-0.35,0.24-0.47,0.42c-0.12,0.17-0.18,0.37-0.18,0.58v2.33c0,0.1-0.03,0.18-0.1,0.24s-0.14,0.1-0.24,0.1
					c-0.09,0-0.17-0.03-0.24-0.1c-0.06-0.07-0.1-0.15-0.1-0.24v-3.64c0-0.1,0.03-0.18,0.1-0.25c0.06-0.06,0.14-0.1,0.24-0.1
					c0.1,0,0.18,0.03,0.24,0.1c0.06,0.06,0.09,0.15,0.09,0.25v0.59l-0.17,0.18c0.03-0.15,0.09-0.29,0.19-0.44
					c0.1-0.15,0.23-0.28,0.38-0.4c0.15-0.12,0.32-0.21,0.5-0.28C70.08,78.63,70.27,78.6,70.47,78.6z"/>
				<path class="st1" d="M74.99,78.6c0.24,0,0.46,0.04,0.67,0.12c0.21,0.08,0.39,0.19,0.54,0.31c0.15,0.13,0.27,0.26,0.36,0.4
					c0.09,0.14,0.13,0.27,0.13,0.39l-0.16-0.1V79c0-0.09,0.03-0.17,0.09-0.24s0.14-0.1,0.24-0.1s0.18,0.03,0.24,0.1
					S77.2,78.9,77.2,79v3.67c0,0.46-0.1,0.84-0.29,1.14c-0.19,0.3-0.45,0.53-0.77,0.68c-0.32,0.15-0.68,0.22-1.08,0.22
					c-0.17,0-0.35-0.02-0.56-0.06s-0.38-0.09-0.54-0.16s-0.25-0.13-0.29-0.2c-0.08-0.06-0.14-0.13-0.16-0.19
					c-0.02-0.07-0.01-0.13,0.03-0.2c0.05-0.08,0.12-0.12,0.2-0.12c0.08,0,0.18,0.03,0.31,0.08c0.05,0.02,0.13,0.04,0.24,0.08
					c0.11,0.04,0.23,0.07,0.37,0.1c0.14,0.03,0.28,0.05,0.41,0.05c0.47,0,0.83-0.13,1.08-0.37c0.25-0.25,0.38-0.58,0.38-0.98v-0.78
					L76.62,82c-0.03,0.16-0.1,0.3-0.21,0.44c-0.1,0.13-0.23,0.25-0.37,0.36c-0.14,0.1-0.31,0.18-0.49,0.24
					c-0.18,0.06-0.36,0.09-0.55,0.09c-0.39,0-0.74-0.1-1.06-0.29s-0.56-0.46-0.74-0.8c-0.18-0.34-0.27-0.73-0.27-1.16
					c0-0.44,0.09-0.83,0.27-1.17c0.18-0.34,0.43-0.61,0.74-0.8C74.26,78.69,74.6,78.6,74.99,78.6z M75.08,79.22
					c-0.29,0-0.55,0.07-0.77,0.21s-0.4,0.34-0.53,0.59c-0.13,0.25-0.19,0.53-0.19,0.84c0,0.31,0.06,0.58,0.19,0.83
					c0.13,0.25,0.3,0.45,0.53,0.59c0.22,0.15,0.48,0.22,0.77,0.22c0.29,0,0.54-0.07,0.76-0.21c0.22-0.14,0.4-0.34,0.53-0.58
					c0.13-0.25,0.19-0.53,0.19-0.85s-0.06-0.6-0.19-0.85c-0.13-0.25-0.3-0.44-0.53-0.58C75.62,79.29,75.37,79.22,75.08,79.22z"/>
				<path class="st1" d="M81.04,78.08c-0.14,0-0.24-0.03-0.31-0.08c-0.07-0.06-0.1-0.14-0.1-0.26v-0.12c0-0.12,0.04-0.2,0.11-0.26
					c0.07-0.06,0.18-0.08,0.31-0.08s0.23,0.03,0.3,0.08c0.07,0.06,0.1,0.14,0.1,0.26v0.12c0,0.12-0.04,0.2-0.11,0.26
					C81.28,78.05,81.18,78.08,81.04,78.08z M81.39,82.69c0,0.1-0.03,0.18-0.1,0.24c-0.06,0.07-0.14,0.1-0.24,0.1
					c-0.1,0-0.18-0.03-0.25-0.1s-0.1-0.15-0.1-0.24v-3.71c0-0.09,0.03-0.18,0.1-0.24c0.06-0.07,0.15-0.1,0.25-0.1
					c0.09,0,0.17,0.03,0.24,0.1c0.06,0.07,0.1,0.15,0.1,0.24V82.69z"/>
				<path class="st1" d="M84.75,78.6c0.38,0,0.68,0.08,0.9,0.23s0.37,0.37,0.46,0.63c0.09,0.26,0.14,0.56,0.14,0.89v2.34
					c0,0.1-0.03,0.18-0.1,0.24s-0.14,0.1-0.24,0.1c-0.1,0-0.18-0.03-0.24-0.1s-0.09-0.15-0.09-0.24v-2.33c0-0.21-0.03-0.4-0.1-0.58
					c-0.06-0.17-0.17-0.31-0.32-0.42c-0.15-0.1-0.35-0.16-0.6-0.16c-0.23,0-0.45,0.05-0.64,0.16s-0.35,0.24-0.47,0.42
					c-0.12,0.17-0.18,0.37-0.18,0.58v2.33c0,0.1-0.03,0.18-0.1,0.24s-0.14,0.1-0.24,0.1c-0.1,0-0.17-0.03-0.24-0.1
					s-0.1-0.15-0.1-0.24v-3.64c0-0.1,0.03-0.18,0.1-0.25s0.14-0.1,0.24-0.1c0.1,0,0.18,0.03,0.24,0.1s0.09,0.15,0.09,0.25v0.59
					l-0.17,0.18c0.03-0.15,0.09-0.29,0.19-0.44c0.1-0.15,0.23-0.28,0.38-0.4c0.15-0.12,0.32-0.21,0.5-0.28
					C84.35,78.63,84.54,78.6,84.75,78.6z"/>
				<path class="st1" d="M89.79,78.63c0.07,0,0.13,0.02,0.19,0.05s0.11,0.09,0.13,0.16l1.39,3.26l-0.13,0.07l1.41-3.33
					c0.06-0.15,0.17-0.22,0.32-0.22c0.08,0,0.16,0.03,0.22,0.08s0.09,0.13,0.09,0.22c0,0.03,0,0.06-0.01,0.09
					c-0.01,0.03-0.02,0.06-0.03,0.08l-1.62,3.71c-0.06,0.14-0.16,0.21-0.29,0.22c-0.07,0.01-0.14,0-0.21-0.04s-0.11-0.1-0.15-0.18
					l-1.62-3.71c-0.01-0.02-0.01-0.04-0.02-0.07c-0.01-0.03-0.01-0.06-0.01-0.1c0-0.07,0.03-0.14,0.09-0.21S89.68,78.63,89.79,78.63
					z"/>
				<path class="st1" d="M96.27,83.12c-0.45,0-0.84-0.09-1.17-0.29c-0.33-0.19-0.6-0.45-0.78-0.78c-0.19-0.33-0.28-0.72-0.28-1.15
					c0-0.49,0.1-0.9,0.29-1.24c0.19-0.34,0.44-0.61,0.75-0.79c0.31-0.18,0.64-0.27,0.98-0.27c0.26,0,0.51,0.05,0.75,0.14
					c0.24,0.09,0.45,0.23,0.64,0.42c0.19,0.18,0.34,0.4,0.45,0.65c0.11,0.25,0.17,0.54,0.18,0.85c-0.01,0.09-0.04,0.16-0.11,0.22
					c-0.07,0.06-0.15,0.09-0.23,0.09h-3.31l-0.15-0.58h3.22l-0.13,0.12v-0.18c-0.02-0.23-0.1-0.43-0.23-0.59
					c-0.13-0.16-0.29-0.29-0.48-0.38c-0.19-0.09-0.38-0.13-0.59-0.13c-0.17,0-0.33,0.03-0.5,0.09c-0.17,0.06-0.31,0.16-0.44,0.29
					c-0.13,0.13-0.24,0.3-0.31,0.5c-0.08,0.21-0.12,0.46-0.12,0.75c0,0.32,0.07,0.61,0.2,0.85c0.13,0.25,0.31,0.44,0.55,0.58
					c0.23,0.14,0.5,0.21,0.81,0.21c0.2,0,0.37-0.03,0.51-0.08s0.27-0.11,0.37-0.19c0.11-0.08,0.2-0.15,0.27-0.23
					c0.07-0.05,0.14-0.08,0.21-0.08c0.08,0,0.15,0.03,0.21,0.08s0.08,0.12,0.08,0.2c0,0.09-0.05,0.18-0.14,0.26
					c-0.16,0.17-0.37,0.32-0.64,0.45C96.86,83.05,96.57,83.12,96.27,83.12z"/>
				<path class="st1" d="M99.33,78.08c-0.14,0-0.24-0.03-0.31-0.08c-0.07-0.06-0.1-0.14-0.1-0.26v-0.12c0-0.12,0.04-0.2,0.11-0.26
					c0.07-0.06,0.18-0.08,0.31-0.08s0.23,0.03,0.3,0.08c0.07,0.06,0.1,0.14,0.1,0.26v0.12c0,0.12-0.04,0.2-0.11,0.26
					C99.57,78.05,99.47,78.08,99.33,78.08z M99.68,82.69c0,0.1-0.03,0.18-0.1,0.24c-0.06,0.07-0.14,0.1-0.24,0.1
					c-0.1,0-0.18-0.03-0.25-0.1S99,82.79,99,82.69v-3.71c0-0.09,0.03-0.18,0.1-0.24c0.06-0.07,0.15-0.1,0.25-0.1
					c0.09,0,0.17,0.03,0.24,0.1c0.06,0.07,0.1,0.15,0.1,0.24V82.69z"/>
				<path class="st1" d="M103.04,78.6c0.38,0,0.68,0.08,0.9,0.23s0.37,0.37,0.46,0.63c0.09,0.26,0.14,0.56,0.14,0.89v2.34
					c0,0.1-0.03,0.18-0.1,0.24s-0.14,0.1-0.24,0.1c-0.1,0-0.18-0.03-0.24-0.1s-0.09-0.15-0.09-0.24v-2.33c0-0.21-0.03-0.4-0.1-0.58
					c-0.06-0.17-0.17-0.31-0.32-0.42c-0.15-0.1-0.35-0.16-0.6-0.16c-0.23,0-0.45,0.05-0.64,0.16s-0.35,0.24-0.47,0.42
					c-0.12,0.17-0.18,0.37-0.18,0.58v2.33c0,0.1-0.03,0.18-0.1,0.24s-0.14,0.1-0.24,0.1c-0.1,0-0.17-0.03-0.24-0.1
					s-0.1-0.15-0.1-0.24v-3.64c0-0.1,0.03-0.18,0.1-0.25s0.14-0.1,0.24-0.1c0.1,0,0.18,0.03,0.24,0.1s0.09,0.15,0.09,0.25v0.59
					l-0.17,0.18c0.03-0.15,0.09-0.29,0.19-0.44c0.1-0.15,0.23-0.28,0.38-0.4c0.15-0.12,0.32-0.21,0.5-0.28
					C102.64,78.63,102.83,78.6,103.04,78.6z"/>
				<path class="st1" d="M105.52,82.35c-0.04-0.07-0.07-0.15-0.06-0.23s0.05-0.15,0.14-0.21c0.06-0.04,0.13-0.06,0.21-0.05
					c0.08,0.01,0.14,0.04,0.21,0.11c0.16,0.18,0.33,0.33,0.54,0.44c0.2,0.11,0.45,0.16,0.74,0.16c0.13-0.01,0.26-0.03,0.4-0.07
					c0.14-0.04,0.25-0.11,0.34-0.21c0.09-0.1,0.14-0.23,0.14-0.39c0-0.16-0.05-0.28-0.14-0.37c-0.09-0.09-0.22-0.17-0.37-0.23
					c-0.15-0.06-0.32-0.11-0.49-0.16c-0.18-0.05-0.37-0.11-0.54-0.17s-0.34-0.14-0.48-0.24c-0.14-0.1-0.26-0.22-0.34-0.37
					c-0.09-0.15-0.13-0.33-0.13-0.55c0-0.25,0.07-0.47,0.21-0.65c0.14-0.18,0.32-0.33,0.55-0.43c0.23-0.1,0.48-0.15,0.76-0.15
					c0.16,0,0.32,0.02,0.49,0.05c0.17,0.04,0.34,0.1,0.5,0.18c0.16,0.09,0.3,0.21,0.43,0.36c0.05,0.06,0.08,0.13,0.08,0.21
					s-0.03,0.16-0.11,0.23c-0.06,0.04-0.13,0.07-0.21,0.06s-0.14-0.03-0.19-0.08c-0.12-0.14-0.27-0.25-0.45-0.33
					c-0.18-0.08-0.37-0.11-0.58-0.11c-0.13,0-0.26,0.02-0.38,0.06c-0.13,0.04-0.24,0.11-0.32,0.2c-0.09,0.09-0.13,0.21-0.13,0.38
					c0.01,0.15,0.06,0.27,0.15,0.37s0.22,0.17,0.39,0.23s0.34,0.12,0.54,0.17c0.18,0.04,0.35,0.1,0.51,0.15s0.31,0.14,0.45,0.23
					s0.24,0.22,0.32,0.36c0.08,0.15,0.12,0.33,0.12,0.56c0,0.26-0.07,0.48-0.22,0.67c-0.15,0.19-0.34,0.33-0.57,0.43
					s-0.49,0.15-0.77,0.15c-0.31,0-0.61-0.06-0.91-0.17S105.74,82.63,105.52,82.35z"/>
			</g>
		</g>
	</g>
</g>
<g id="Layer_2">
</g>
</svg>
