<?xml version="1.0" encoding="utf-8"?>
<!-- Generator: Adobe Illustrator 24.3.0, SVG Export Plug-In . SVG Version: 6.00 Build 0)  -->
<svg version="1.1" id="Layer_1" xmlns="http://www.w3.org/2000/svg" xmlns:xlink="http://www.w3.org/1999/xlink" x="0px" y="0px"
	 viewBox="0 0 62 62" style="enable-background:new 0 0 62 62;" xml:space="preserve">
<style type="text/css">
	.st0{fill-rule:evenodd;clip-rule:evenodd;fill:#E3E3E3;}
</style>
<g transform="rotate(0 0 0)">
	<g transform="matrix(1 0 0 1 0 0)">
		<g transform="translate(0,-972.36214)">
			<path class="st0" d="M26.4,976.6c-17.1,0-31,13.9-31,31c0,17.1,13.9,31,31,31s31-13.9,31-31C57.4,990.5,43.5,976.6,26.4,976.6z
				 M26.4,977.4c16.7,0,30.2,13.5,30.2,30.2c0,16.7-13.5,30.2-30.2,30.2s-30.2-13.5-30.2-30.2C-3.9,990.9,9.7,977.4,26.4,977.4z
				 M27.5,989c-0.6,0-1.2,0.5-1.2,1.2c0,0.5,0.3,0.9,0.8,1.1v1.4l-2.3,1.9l0,6.8h-2.3V997l-3.9-3.1v-1.8c0.4-0.2,0.8-0.6,0.8-1.1
				c0-0.6-0.5-1.2-1.2-1.2c-0.6,0-1.2,0.5-1.2,1.2c0,0.5,0.3,0.9,0.8,1.1v2.2l3.9,3.1v4.1h-1.9v-3.4L17,996c0-0.1,0.1-0.2,0.1-0.4
				c0-0.6-0.5-1.2-1.2-1.2c-0.6,0-1.2,0.5-1.2,1.2s0.5,1.2,1.2,1.2c0.2,0,0.4-0.1,0.6-0.2l2.5,1.9v3h-6.2c-1.1,0-1.9,0.9-1.9,1.9
				v17.4H8.1c-0.2,0-0.4,0.2-0.4,0.4v1.5c0,1.5,1.2,2.7,2.7,2.7h31.8c1.5,0,2.7-1.2,2.7-2.7v-1.5c0-0.2-0.2-0.4-0.4-0.4h-2.7v-17.4
				c0-1.1-0.9-1.9-1.9-1.9h-6.6v-3l2.7-2c0.2,0.2,0.5,0.3,0.8,0.3c0.6,0,1.2-0.5,1.2-1.2s-0.5-1.2-1.2-1.2c-0.6,0-1.2,0.5-1.2,1.2
				c0,0,0,0.1,0,0.1l-3.1,2.3v3.4H31v-4.1l3.9-3.1v-2.2c0.4-0.2,0.8-0.6,0.8-1.1c0-0.6-0.5-1.2-1.2-1.2c-0.6,0-1.2,0.5-1.2,1.2
				c0,0.5,0.3,0.9,0.8,1.1v1.8l-3.9,3.1v4.4h-2.3l0-5.2l2.7-2c0.2,0.2,0.5,0.3,0.8,0.3c0.6,0,1.2-0.5,1.2-1.2s-0.5-1.2-1.2-1.2
				c-0.6,0-1.2,0.5-1.2,1.2c0,0.1,0,0.1,0,0.2l-3.1,2.3l0,5.6h-1.6l0-6.4l2.3-1.9v-1.8c0.4-0.2,0.8-0.6,0.8-1.1
				C28.7,989.5,28.1,989,27.5,989z M27.5,989.8c0.2,0,0.4,0.2,0.4,0.4c0,0.2-0.2,0.4-0.4,0.4s-0.4-0.2-0.4-0.4
				C27.1,990,27.3,989.8,27.5,989.8z M18.2,990.6c0.2,0,0.4,0.2,0.4,0.4c0,0.2-0.2,0.4-0.4,0.4c-0.2,0-0.4-0.2-0.4-0.4
				C17.8,990.7,18,990.6,18.2,990.6z M34.5,990.6c0.2,0,0.4,0.2,0.4,0.4c0,0.2-0.2,0.4-0.4,0.4c-0.2,0-0.4-0.2-0.4-0.4
				C34.1,990.7,34.3,990.6,34.5,990.6z M31.4,992.9c0.2,0,0.4,0.2,0.4,0.4c0,0.2-0.2,0.4-0.4,0.4s-0.4-0.2-0.4-0.4
				C31,993.1,31.2,992.9,31.4,992.9z M15.9,995.2c0.2,0,0.4,0.2,0.4,0.4c0,0.2-0.2,0.4-0.4,0.4c-0.2,0-0.4-0.2-0.4-0.4
				C15.5,995.4,15.7,995.2,15.9,995.2z M36.8,995.2c0.2,0,0.4,0.2,0.4,0.4c0,0.2-0.2,0.4-0.4,0.4s-0.4-0.2-0.4-0.4
				C36.4,995.4,36.6,995.2,36.8,995.2z M12.8,1002.2h27.1c0.7,0,1.2,0.5,1.2,1.2v17.4H11.6v-17.4
				C11.6,1002.7,12.1,1002.2,12.8,1002.2z M13.6,1003.7c-0.2,0-0.4,0.2-0.4,0.4v14.7c0,0.2,0.2,0.4,0.4,0.4h25.6
				c0.2,0,0.4-0.2,0.4-0.4v-14.7c0-0.2-0.2-0.4-0.4-0.4H13.6z M14,1004.5h5v2.2l-2.5,1.9c-0.2-0.1-0.4-0.2-0.6-0.2
				c-0.6,0-1.2,0.5-1.2,1.2s0.5,1.2,1.2,1.2c0.6,0,1.2-0.5,1.2-1.2c0-0.1,0-0.2-0.1-0.4l2.8-2.1v-2.6h1.9v3.3l-3.9,3.1v2.2
				c-0.4,0.2-0.8,0.6-0.8,1.1c0,0.6,0.5,1.2,1.2,1.2c0.6,0,1.2-0.5,1.2-1.2c0-0.5-0.3-0.9-0.8-1.1v-1.8l3.9-3.1v-3.7h2.3l0,5.6
				l-2.1,1.5c-0.2-0.1-0.4-0.2-0.6-0.2c-0.6,0-1.2,0.5-1.2,1.2s0.5,1.2,1.2,1.2c0.6,0,1.2-0.5,1.2-1.2c0-0.1,0-0.2-0.1-0.3l2.4-1.8
				l0-6h1.6l0,6.8l2.3,1.9v1.4c-0.5,0.2-0.8,0.6-0.8,1.1c0,0.6,0.5,1.2,1.2,1.2c0.6,0,1.2-0.5,1.2-1.2c0-0.5-0.3-0.9-0.8-1.1v-1.8
				l-2.3-1.9l0-6.4h2.3v4l3.9,2.7v1.9c-0.4,0.2-0.8,0.6-0.8,1.1c0,0.6,0.5,1.2,1.2,1.2c0.6,0,1.2-0.5,1.2-1.2c0-0.5-0.3-0.9-0.8-1.1
				v-2.3l-3.9-2.7v-3.6h1.6v2.5l3.1,2.3c0,0.1,0,0.2,0,0.3c0,0.6,0.5,1.2,1.2,1.2c0.6,0,1.2-0.5,1.2-1.2s-0.5-1.2-1.2-1.2
				c-0.3,0-0.5,0.1-0.7,0.2l-2.8-2v-2.1h5.4v14H14V1004.5z M15.9,1009.2c0.2,0,0.4,0.2,0.4,0.4c0,0.2-0.2,0.4-0.4,0.4
				c-0.2,0-0.4-0.2-0.4-0.4C15.5,1009.3,15.7,1009.2,15.9,1009.2z M36.8,1009.2c0.2,0,0.4,0.2,0.4,0.4c0,0.2-0.2,0.4-0.4,0.4
				s-0.4-0.2-0.4-0.4C36.4,1009.3,36.6,1009.2,36.8,1009.2z M22.1,1012.3c0.2,0,0.4,0.2,0.4,0.4c0,0.2-0.2,0.4-0.4,0.4
				s-0.4-0.2-0.4-0.4C21.7,1012.4,21.9,1012.3,22.1,1012.3z M18.2,1013.8c0.2,0,0.4,0.2,0.4,0.4c0,0.2-0.2,0.4-0.4,0.4
				c-0.2,0-0.4-0.2-0.4-0.4C17.8,1014,18,1013.8,18.2,1013.8z M34.5,1013.8c0.2,0,0.4,0.2,0.4,0.4c0,0.2-0.2,0.4-0.4,0.4
				c-0.2,0-0.4-0.2-0.4-0.4C34.1,1014,34.3,1013.8,34.5,1013.8z M29.8,1015.4c0.2,0,0.4,0.2,0.4,0.4c0,0.2-0.2,0.4-0.4,0.4
				s-0.4-0.2-0.4-0.4C29.5,1015.5,29.6,1015.4,29.8,1015.4z M31.7,1021.6h12.4v1.2c0,1.1-0.9,1.9-1.9,1.9H10.5
				c-1.1,0-1.9-0.9-1.9-1.9v-1.2h13.2c0.2,0.9,1,1.5,1.9,1.5h6.2C30.8,1023.1,31.6,1022.5,31.7,1021.6z M22.6,1021.6h8.2
				c-0.2,0.4-0.5,0.8-1,0.8h-6.2C23.1,1022.3,22.8,1022,22.6,1021.6z"/>
		</g>
	</g>
</g>
</svg>
