<?xml version="1.0" encoding="utf-8"?>
<!-- Generator: Adobe Illustrator 24.3.0, SVG Export Plug-In . SVG Version: 6.00 Build 0)  -->
<svg version="1.1" id="Layer_1" xmlns="http://www.w3.org/2000/svg" xmlns:xlink="http://www.w3.org/1999/xlink" x="0px" y="0px"
	 viewBox="0 0 1920 1080" style="enable-background:new 0 0 1920 1080;" xml:space="preserve">
<style type="text/css">
	.st0{stroke:#000000;stroke-miterlimit:10;}
	.st1{fill:#222222;}
	.st2{fill:#E3E3E3;}
	.st3{font-family:'Audiowide-Regular';}
	.st4{font-size:203.3964px;}
</style>
<g id="Layer_2_1_">
	<rect x="0.5" y="-0.5" class="st0" width="1920" height="1080"/>
</g>
<g id="Layer_1_1_">
	<g>
		<g>
			<rect x="280.5" y="193.6" class="st1" width="696.4" height="696.4"/>
			<path d="M976.4,194.1v695.4H281V194.1H976.4 M977.4,193.1H280v697.4h697.4V193.1L977.4,193.1z"/>
		</g>
		<text transform="matrix(1 0 0 1 477.1104 541.7758)" class="st2 st3 st4">TECHMAN</text>
		<g>
			<g>
				<path class="st2" d="M493.9,633c3.7,0,6.9,0.9,9.9,2.7c2.9,1.8,5.2,4.4,6.9,7.6c1.7,3.2,2.5,6.9,2.5,11.1
					c0,4.1-0.8,7.8-2.5,11.1c-1.7,3.3-4,5.8-6.9,7.7c-2.9,1.9-6.1,2.8-9.7,2.8c-2,0-3.9-0.3-5.6-0.9s-3.3-1.4-4.8-2.4
					c-1.4-1-2.6-2.1-3.6-3.3s-1.7-2.5-2.1-3.8l1.8-1v23.7c0,0.9-0.3,1.7-0.9,2.3c-0.6,0.7-1.4,1-2.3,1c-0.9,0-1.7-0.3-2.3-0.9
					s-0.9-1.4-0.9-2.4v-51.5c0-1,0.3-1.8,0.9-2.4s1.4-0.9,2.3-0.9c1,0,1.8,0.3,2.3,0.9s0.9,1.4,0.9,2.4v7.1l-1.2-0.7
					c0.4-1.3,1-2.6,2-3.9s2.1-2.3,3.5-3.3s2.9-1.7,4.6-2.2C490.3,633.2,492.1,633,493.9,633z M493.2,638.9c-2.7,0-5.1,0.7-7.1,2
					c-2.1,1.3-3.7,3.2-4.8,5.5c-1.2,2.3-1.7,5-1.7,8c0,3,0.6,5.6,1.7,8s2.8,4.2,4.8,5.6c2.1,1.3,4.5,2,7.1,2s5.1-0.7,7.1-2
					c2-1.3,3.7-3.2,4.8-5.6s1.8-5,1.8-8c0-3-0.6-5.7-1.8-8c-1.2-2.3-2.8-4.1-4.8-5.5C498.2,639.6,495.9,638.9,493.2,638.9z"/>
				<path class="st2" d="M525.7,675.3c-0.9,0-1.7-0.3-2.3-1c-0.6-0.7-0.9-1.4-0.9-2.3v-35.1c0-1,0.3-1.8,0.9-2.4s1.4-0.9,2.3-0.9
					c1,0,1.8,0.3,2.3,0.9s0.9,1.4,0.9,2.4v10.6l-1-1.7c0.3-1.7,0.9-3.3,1.7-4.9c0.8-1.6,1.9-3,3.2-4.3c1.3-1.3,2.8-2.3,4.4-3
					s3.5-1.1,5.5-1.1c1.2,0,2.3,0.3,3.3,0.8c1,0.6,1.5,1.4,1.5,2.4c0,1.1-0.3,2-0.9,2.5c-0.6,0.6-1.3,0.8-2,0.8
					c-0.7,0-1.4-0.2-2-0.5s-1.5-0.5-2.4-0.5c-1.3,0-2.7,0.4-4,1.1s-2.5,1.8-3.6,3.1s-2,2.8-2.7,4.5s-1,3.5-1,5.5V672
					c0,0.9-0.3,1.7-0.9,2.3C527.4,675,526.6,675.3,525.7,675.3z"/>
				<path class="st2" d="M594.1,654.3c0,4.2-0.9,7.9-2.7,11.2c-1.8,3.3-4.3,5.9-7.5,7.8c-3.2,1.9-6.7,2.8-10.7,2.8
					c-3.9,0-7.5-0.9-10.7-2.8c-3.2-1.9-5.7-4.5-7.5-7.8s-2.8-7-2.8-11.2s0.9-7.9,2.8-11.2s4.4-5.9,7.5-7.8c3.2-1.9,6.7-2.8,10.7-2.8
					c4,0,7.5,0.9,10.7,2.8c3.2,1.9,5.6,4.5,7.5,7.8C593.2,646.4,594.1,650.1,594.1,654.3z M587.6,654.3c0-3.1-0.6-5.8-1.9-8.2
					c-1.3-2.3-3-4.2-5.2-5.6s-4.6-2.1-7.4-2.1c-2.7,0-5.1,0.7-7.3,2.1c-2.2,1.4-3.9,3.2-5.2,5.6c-1.3,2.3-1.9,5.1-1.9,8.2
					c0,3.1,0.6,5.8,1.9,8.2c1.3,2.4,3,4.2,5.2,5.6s4.7,2.1,7.3,2.1c2.7,0,5.2-0.7,7.4-2.1s3.9-3.2,5.2-5.6
					C587,660.1,587.6,657.4,587.6,654.3z"/>
				<path class="st2" d="M620.5,632.5c2.3,0,4.5,0.4,6.5,1.2c2,0.8,3.7,1.8,5.2,3c1.5,1.2,2.6,2.5,3.5,3.9c0.8,1.3,1.3,2.6,1.3,3.8
					l-1.5-1v-7c0-0.9,0.3-1.7,0.9-2.3c0.6-0.6,1.4-0.9,2.3-0.9s1.8,0.3,2.3,0.9s0.9,1.4,0.9,2.3v35.3c0,4.4-0.9,8.1-2.8,11
					c-1.9,2.9-4.3,5.1-7.5,6.5c-3.1,1.4-6.6,2.1-10.4,2.1c-1.6,0-3.4-0.2-5.4-0.6c-2-0.4-3.7-0.9-5.2-1.5c-1.5-0.6-2.5-1.3-2.8-1.9
					c-0.8-0.6-1.3-1.2-1.5-1.9c-0.2-0.7-0.1-1.3,0.3-1.9c0.5-0.8,1.1-1.1,1.9-1.1s1.8,0.2,3,0.7c0.5,0.2,1.3,0.4,2.3,0.8
					s2.3,0.7,3.6,1s2.7,0.4,4,0.4c4.5,0,8-1.2,10.5-3.6s3.7-5.6,3.7-9.5v-7.5l0.9,0.4c-0.3,1.5-1,2.9-2,4.2c-1,1.3-2.2,2.4-3.6,3.4
					c-1.4,1-3,1.8-4.7,2.3s-3.5,0.8-5.3,0.8c-3.8,0-7.2-0.9-10.2-2.8s-5.4-4.5-7.1-7.8c-1.8-3.3-2.6-7-2.6-11.2
					c0-4.3,0.9-8,2.6-11.3c1.8-3.3,4.1-5.8,7.1-7.7S616.8,632.5,620.5,632.5z M621.4,638.5c-2.8,0-5.3,0.7-7.4,2.1
					c-2.2,1.4-3.8,3.3-5.1,5.7c-1.2,2.4-1.9,5.1-1.9,8.1c0,3,0.6,5.6,1.9,8s2.9,4.3,5.1,5.7s4.6,2.1,7.4,2.1c2.7,0,5.2-0.7,7.3-2.1
					s3.8-3.2,5.1-5.6c1.2-2.4,1.9-5.1,1.9-8.2s-0.6-5.8-1.9-8.2s-2.9-4.3-5.1-5.6C626.6,639.2,624.2,638.5,621.4,638.5z"/>
				<path class="st2" d="M657,675.3c-0.9,0-1.7-0.3-2.3-1c-0.6-0.7-0.9-1.4-0.9-2.3v-35.1c0-1,0.3-1.8,0.9-2.4s1.4-0.9,2.3-0.9
					c1,0,1.8,0.3,2.3,0.9s0.9,1.4,0.9,2.4v10.6l-1-1.7c0.3-1.7,0.9-3.3,1.7-4.9c0.8-1.6,1.9-3,3.2-4.3c1.3-1.3,2.8-2.3,4.4-3
					s3.5-1.1,5.5-1.1c1.2,0,2.3,0.3,3.3,0.8c1,0.6,1.5,1.4,1.5,2.4c0,1.1-0.3,2-0.9,2.5c-0.6,0.6-1.3,0.8-2,0.8
					c-0.7,0-1.4-0.2-2-0.5s-1.5-0.5-2.4-0.5c-1.3,0-2.7,0.4-4,1.1s-2.5,1.8-3.6,3.1s-2,2.8-2.7,4.5s-1,3.5-1,5.5V672
					c0,0.9-0.3,1.7-0.9,2.3C658.7,675,657.9,675.3,657,675.3z"/>
				<path class="st2" d="M720.1,633.2c1,0,1.8,0.3,2.3,0.9s0.9,1.4,0.9,2.3V672c0,0.9-0.3,1.7-0.9,2.3c-0.6,0.7-1.4,1-2.3,1
					c-1,0-1.8-0.3-2.3-1c-0.6-0.7-0.9-1.4-0.9-2.3v-7.7l1.5-0.2c0,1.2-0.4,2.5-1.2,3.9s-1.9,2.7-3.3,3.9s-3,2.2-5,3
					c-1.9,0.8-3.9,1.2-6.1,1.2c-3.7,0-7-1-9.9-2.9c-2.9-1.9-5.2-4.5-6.9-7.8c-1.7-3.3-2.5-7-2.5-11.2c0-4.3,0.8-8,2.5-11.3
					c1.7-3.3,4-5.8,6.9-7.7c2.9-1.9,6.1-2.8,9.7-2.8c2.3,0,4.5,0.4,6.5,1.1c2,0.8,3.7,1.8,5.2,3.1c1.5,1.3,2.6,2.7,3.5,4.3
					c0.8,1.6,1.3,3.1,1.3,4.7l-2.1-0.5v-8.8c0-0.9,0.3-1.7,0.9-2.3C718.4,633.5,719.2,633.2,720.1,633.2z M703.5,670.2
					c2.7,0,5.1-0.7,7.1-2.1c2.1-1.4,3.7-3.3,4.8-5.7c1.2-2.4,1.7-5.1,1.7-8.1c0-3-0.6-5.6-1.7-8s-2.8-4.3-4.8-5.7s-4.5-2.1-7.1-2.1
					c-2.6,0-5,0.7-7.1,2.1s-3.7,3.2-4.9,5.6s-1.8,5.1-1.8,8.1s0.6,5.7,1.8,8.1c1.2,2.4,2.8,4.3,4.9,5.7S700.9,670.2,703.5,670.2z"/>
				<path class="st2" d="M755.2,633c3.7,0,6.6,0.9,8.9,2.8c2.3,1.9,3.8,4.5,4.6,7.9h-1.2l0.6-1.5c0.7-1.5,1.8-3,3.3-4.4
					c1.6-1.4,3.4-2.6,5.4-3.5c2-0.9,4.2-1.4,6.4-1.4c3.5,0,6.3,0.8,8.4,2.3c2,1.5,3.5,3.6,4.4,6.1s1.3,5.4,1.3,8.6v22
					c0,0.9-0.3,1.7-0.9,2.3c-0.6,0.7-1.4,1-2.4,1c-0.9,0-1.7-0.3-2.3-1c-0.6-0.7-0.9-1.4-0.9-2.3v-21.9c0-2-0.3-3.9-0.9-5.6
					s-1.6-3-3-4.1c-1.4-1-3.3-1.5-5.7-1.5c-2.2,0-4.1,0.5-6,1.5c-1.8,1-3.3,2.4-4.4,4.1c-1.1,1.7-1.6,3.6-1.6,5.6V672
					c0,0.9-0.3,1.7-0.9,2.3c-0.6,0.7-1.4,1-2.3,1c-1,0-1.8-0.3-2.3-1c-0.6-0.7-0.9-1.4-0.9-2.3v-22.1c0-2-0.3-3.8-0.9-5.5
					s-1.6-3-2.9-4s-3.2-1.5-5.5-1.5c-2.2,0-4.1,0.5-5.9,1.5c-1.8,1-3.2,2.3-4.3,4s-1.6,3.5-1.6,5.5V672c0,0.9-0.3,1.7-0.9,2.3
					c-0.6,0.7-1.4,1-2.3,1c-0.9,0-1.7-0.3-2.3-1c-0.6-0.7-0.9-1.4-0.9-2.3v-35.1c0-1,0.3-1.8,0.9-2.4s1.4-0.9,2.3-0.9
					c1,0,1.8,0.3,2.3,0.9s0.9,1.4,0.9,2.4v6l-1.8,1.9c0.2-1.4,0.8-2.8,1.7-4.2c0.9-1.4,2-2.7,3.4-3.9c1.4-1.2,3-2.1,4.7-2.8
					C751.5,633.3,753.3,633,755.2,633z"/>
				<path class="st2" d="M829.2,633c3.7,0,6.6,0.9,8.9,2.8c2.3,1.9,3.8,4.5,4.6,7.9h-1.2l0.6-1.5c0.6-1.5,1.8-3,3.3-4.4
					c1.6-1.4,3.4-2.6,5.4-3.5c2-0.9,4.2-1.4,6.4-1.4c3.5,0,6.3,0.8,8.4,2.3c2,1.5,3.5,3.6,4.4,6.1c0.9,2.6,1.3,5.4,1.3,8.6v22
					c0,0.9-0.3,1.7-0.9,2.3s-1.4,1-2.4,1c-0.9,0-1.7-0.3-2.3-1s-0.9-1.4-0.9-2.3v-21.9c0-2-0.3-3.9-0.9-5.6s-1.6-3-3-4.1
					c-1.4-1-3.3-1.5-5.7-1.5c-2.2,0-4.1,0.5-6,1.5c-1.8,1-3.3,2.4-4.4,4.1s-1.6,3.6-1.6,5.6V672c0,0.9-0.3,1.7-0.9,2.3s-1.4,1-2.3,1
					s-1.8-0.3-2.3-1c-0.6-0.7-0.9-1.4-0.9-2.3v-22.1c0-2-0.3-3.8-0.9-5.5s-1.6-3-2.9-4s-3.2-1.5-5.5-1.5c-2.2,0-4.1,0.5-5.9,1.5
					c-1.8,1-3.2,2.3-4.3,4s-1.6,3.5-1.6,5.5V672c0,0.9-0.3,1.7-0.9,2.3c-0.6,0.7-1.4,1-2.3,1c-0.9,0-1.7-0.3-2.3-1
					c-0.6-0.7-0.9-1.4-0.9-2.3v-35.1c0-1,0.3-1.8,0.9-2.4s1.4-0.9,2.3-0.9c1,0,1.8,0.3,2.3,0.9s0.9,1.4,0.9,2.4v6l-1.8,1.9
					c0.2-1.4,0.8-2.8,1.7-4.2c0.9-1.4,2-2.7,3.4-3.9c1.4-1.2,3-2.1,4.7-2.8C825.4,633.3,827.2,633,829.2,633z"/>
				<path class="st2" d="M886.1,627.5c-1.3,0-2.3-0.3-3-0.8c-0.7-0.5-1-1.4-1-2.5v-1.1c0-1.1,0.3-2,1-2.5s1.7-0.8,3-0.8
					s2.3,0.3,2.9,0.8c0.7,0.5,1,1.4,1,2.5v1.1c0,1.1-0.3,2-1,2.5C888.3,627.3,887.4,627.5,886.1,627.5z M889.4,672
					c0,0.9-0.3,1.7-0.9,2.3c-0.6,0.7-1.4,1-2.3,1c-1,0-1.8-0.3-2.4-1c-0.6-0.7-0.9-1.4-0.9-2.3v-35.8c0-0.9,0.3-1.7,0.9-2.3
					s1.4-1,2.4-1c0.9,0,1.7,0.3,2.3,1c0.6,0.7,0.9,1.4,0.9,2.3V672z"/>
				<path class="st2" d="M921.8,632.5c3.7,0,6.5,0.8,8.6,2.3c2.1,1.5,3.6,3.5,4.5,6c0.9,2.5,1.3,5.4,1.3,8.6V672
					c0,0.9-0.3,1.7-0.9,2.3c-0.6,0.7-1.4,1-2.3,1c-1,0-1.8-0.3-2.3-1c-0.6-0.7-0.9-1.4-0.9-2.3v-22.4c0-2-0.3-3.9-0.9-5.6
					s-1.7-3-3.1-4c-1.5-1-3.4-1.5-5.8-1.5c-2.3,0-4.3,0.5-6.2,1.5c-1.9,1-3.4,2.3-4.5,4s-1.7,3.5-1.7,5.6V672c0,0.9-0.3,1.7-0.9,2.3
					c-0.6,0.7-1.4,1-2.3,1c-0.9,0-1.7-0.3-2.3-1c-0.6-0.7-0.9-1.4-0.9-2.3v-35.1c0-1,0.3-1.8,0.9-2.4s1.4-0.9,2.3-0.9
					c1,0,1.8,0.3,2.3,0.9s0.9,1.4,0.9,2.4v5.7l-1.6,1.8c0.3-1.4,0.9-2.8,1.9-4.2c1-1.4,2.2-2.7,3.6-3.8s3.1-2,4.8-2.7
					C918,632.9,919.8,632.5,921.8,632.5z"/>
				<path class="st2" d="M965.3,632.5c2.3,0,4.5,0.4,6.5,1.2c2,0.8,3.7,1.8,5.2,3c1.5,1.2,2.6,2.5,3.5,3.9c0.8,1.3,1.3,2.6,1.3,3.8
					l-1.5-1v-7c0-0.9,0.3-1.7,0.9-2.3s1.4-0.9,2.3-0.9c1,0,1.8,0.3,2.3,0.9s0.9,1.4,0.9,2.3v35.3c0,4.4-0.9,8.1-2.8,11
					c-1.9,2.9-4.3,5.1-7.5,6.5c-3.1,1.4-6.6,2.1-10.4,2.1c-1.6,0-3.4-0.2-5.4-0.6c-2-0.4-3.7-0.9-5.2-1.5c-1.5-0.6-2.5-1.3-2.8-1.9
					c-0.8-0.6-1.3-1.2-1.5-1.9c-0.2-0.7-0.1-1.3,0.3-1.9c0.5-0.8,1.1-1.1,1.9-1.1s1.8,0.2,3,0.7c0.5,0.2,1.3,0.4,2.3,0.8
					s2.3,0.7,3.6,1s2.7,0.4,4,0.4c4.5,0,8-1.2,10.5-3.6s3.7-5.6,3.7-9.5v-7.5l0.9,0.4c-0.3,1.5-1,2.9-2,4.2c-1,1.3-2.2,2.4-3.6,3.4
					c-1.4,1-3,1.8-4.7,2.3s-3.5,0.8-5.3,0.8c-3.8,0-7.2-0.9-10.2-2.8s-5.4-4.5-7.1-7.8s-2.6-7-2.6-11.2c0-4.3,0.9-8,2.6-11.3
					c1.8-3.3,4.1-5.8,7.1-7.7S961.5,632.5,965.3,632.5z M966.1,638.5c-2.8,0-5.3,0.7-7.4,2.1c-2.2,1.4-3.8,3.3-5.1,5.7
					c-1.2,2.4-1.9,5.1-1.9,8.1c0,3,0.6,5.6,1.9,8s2.9,4.3,5.1,5.7s4.6,2.1,7.4,2.1c2.7,0,5.2-0.7,7.3-2.1s3.8-3.2,5.1-5.6
					c1.2-2.4,1.9-5.1,1.9-8.2s-0.6-5.8-1.9-8.2s-2.9-4.3-5.1-5.6C971.3,639.2,968.9,638.5,966.1,638.5z"/>
				<path class="st2" d="M1023.6,627.5c-1.3,0-2.3-0.3-3-0.8c-0.7-0.5-1-1.4-1-2.5v-1.1c0-1.1,0.3-2,1-2.5s1.7-0.8,3-0.8
					s2.3,0.3,2.9,0.8s1,1.4,1,2.5v1.1c0,1.1-0.3,2-1,2.5C1025.9,627.3,1024.9,627.5,1023.6,627.5z M1026.9,672
					c0,0.9-0.3,1.7-0.9,2.3c-0.6,0.7-1.4,1-2.3,1c-1,0-1.8-0.3-2.4-1c-0.6-0.7-0.9-1.4-0.9-2.3v-35.8c0-0.9,0.3-1.7,0.9-2.3
					s1.4-1,2.4-1c0.9,0,1.7,0.3,2.3,1c0.6,0.7,0.9,1.4,0.9,2.3V672z"/>
				<path class="st2" d="M1059.3,632.5c3.7,0,6.5,0.8,8.6,2.3s3.6,3.5,4.5,6c0.9,2.5,1.3,5.4,1.3,8.6V672c0,0.9-0.3,1.7-0.9,2.3
					c-0.6,0.7-1.4,1-2.3,1c-1,0-1.8-0.3-2.3-1c-0.6-0.7-0.9-1.4-0.9-2.3v-22.4c0-2-0.3-3.9-0.9-5.6s-1.7-3-3.1-4
					c-1.4-1-3.4-1.5-5.8-1.5c-2.3,0-4.3,0.5-6.2,1.5c-1.9,1-3.4,2.3-4.5,4s-1.7,3.5-1.7,5.6V672c0,0.9-0.3,1.7-0.9,2.3
					c-0.6,0.7-1.4,1-2.3,1c-0.9,0-1.7-0.3-2.3-1c-0.6-0.7-0.9-1.4-0.9-2.3v-35.1c0-1,0.3-1.8,0.9-2.4s1.4-0.9,2.3-0.9
					c1,0,1.8,0.3,2.3,0.9s0.9,1.4,0.9,2.4v5.7l-1.6,1.8c0.3-1.4,0.9-2.8,1.9-4.2c1-1.4,2.2-2.7,3.6-3.8s3.1-2,4.8-2.7
					C1055.5,632.9,1057.3,632.5,1059.3,632.5z"/>
				<path class="st2" d="M1107.9,632.9c0.7,0,1.3,0.2,1.9,0.5c0.6,0.3,1,0.9,1.3,1.6l13.4,31.4l-1.3,0.7l13.6-32
					c0.6-1.5,1.6-2.2,3.1-2.1c0.8,0,1.5,0.3,2.1,0.8s0.9,1.2,0.9,2.1c0,0.3,0,0.6-0.1,0.9s-0.2,0.5-0.3,0.8l-15.6,35.8
					c-0.6,1.3-1.5,2-2.8,2.1c-0.7,0.1-1.4,0-2-0.4c-0.6-0.4-1.1-0.9-1.4-1.7l-15.6-35.8c-0.1-0.2-0.1-0.4-0.2-0.7s-0.1-0.6-0.1-0.9
					c0-0.7,0.3-1.4,0.8-2C1106.1,633.2,1106.8,632.9,1107.9,632.9z"/>
				<path class="st2" d="M1170.3,676.1c-4.3,0-8.1-0.9-11.3-2.7c-3.2-1.8-5.7-4.3-7.6-7.5c-1.8-3.2-2.7-6.9-2.7-11.1
					c0-4.7,0.9-8.7,2.8-12c1.9-3.3,4.3-5.8,7.3-7.6c3-1.8,6.2-2.6,9.5-2.6c2.5,0,4.9,0.5,7.2,1.4c2.3,0.9,4.3,2.3,6.1,4
					c1.8,1.8,3.2,3.9,4.3,6.3c1.1,2.4,1.6,5.2,1.7,8.2c-0.1,0.9-0.4,1.6-1.1,2.1s-1.4,0.8-2.3,0.8h-31.9l-1.4-5.6h31.1l-1.3,1.1
					v-1.8c-0.2-2.2-1-4.1-2.2-5.7s-2.8-2.8-4.6-3.7c-1.8-0.9-3.7-1.3-5.7-1.3c-1.6,0-3.2,0.3-4.8,0.9c-1.6,0.6-3,1.5-4.3,2.8
					c-1.3,1.2-2.3,2.8-3,4.8c-0.8,2-1.1,4.4-1.1,7.2c0,3.1,0.6,5.9,1.9,8.2c1.3,2.4,3,4.2,5.3,5.6s4.9,2.1,7.8,2.1
					c1.9,0,3.6-0.2,5-0.7c1.4-0.5,2.6-1.1,3.6-1.8s1.9-1.5,2.6-2.2c0.7-0.5,1.4-0.7,2-0.7c0.8,0,1.5,0.3,2,0.8s0.8,1.2,0.8,1.9
					c0,0.9-0.5,1.8-1.4,2.5c-1.5,1.7-3.6,3.1-6.1,4.4C1176,675.5,1173.3,676.1,1170.3,676.1z"/>
				<path class="st2" d="M1199.9,627.5c-1.3,0-2.3-0.3-3-0.8s-1-1.4-1-2.5v-1.1c0-1.1,0.3-2,1.1-2.5c0.7-0.5,1.7-0.8,3-0.8
					s2.3,0.3,2.9,0.8s1,1.4,1,2.5v1.1c0,1.1-0.3,2-1,2.5C1202.2,627.3,1201.2,627.5,1199.9,627.5z M1203.2,672
					c0,0.9-0.3,1.7-0.9,2.3c-0.6,0.7-1.4,1-2.3,1c-1,0-1.8-0.3-2.4-1c-0.6-0.7-0.9-1.4-0.9-2.3v-35.8c0-0.9,0.3-1.7,0.9-2.3
					s1.4-1,2.4-1c0.9,0,1.7,0.3,2.3,1c0.6,0.7,0.9,1.4,0.9,2.3V672z"/>
				<path class="st2" d="M1235.6,632.5c3.7,0,6.5,0.8,8.6,2.3s3.6,3.5,4.5,6c0.9,2.5,1.3,5.4,1.3,8.6V672c0,0.9-0.3,1.7-0.9,2.3
					c-0.6,0.7-1.4,1-2.3,1c-1,0-1.8-0.3-2.3-1c-0.6-0.7-0.9-1.4-0.9-2.3v-22.4c0-2-0.3-3.9-0.9-5.6s-1.7-3-3.1-4
					c-1.4-1-3.4-1.5-5.8-1.5c-2.3,0-4.3,0.5-6.2,1.5c-1.9,1-3.4,2.3-4.5,4s-1.7,3.5-1.7,5.6V672c0,0.9-0.3,1.7-0.9,2.3
					c-0.6,0.7-1.4,1-2.3,1c-0.9,0-1.7-0.3-2.3-1c-0.6-0.7-0.9-1.4-0.9-2.3v-35.1c0-1,0.3-1.8,0.9-2.4s1.4-0.9,2.3-0.9
					c1,0,1.8,0.3,2.3,0.9s0.9,1.4,0.9,2.4v5.7l-1.6,1.8c0.3-1.4,0.9-2.8,1.9-4.2c1-1.4,2.2-2.7,3.6-3.8s3.1-2,4.8-2.7
					C1231.8,632.9,1233.6,632.5,1235.6,632.5z"/>
				<path class="st2" d="M1259.5,668.7c-0.4-0.7-0.6-1.4-0.6-2.2c0-0.8,0.5-1.5,1.3-2.1c0.6-0.4,1.3-0.5,2-0.5c0.7,0,1.4,0.4,2,1
					c1.5,1.8,3.2,3.2,5.2,4.2c1.9,1,4.3,1.6,7.1,1.6c1.2,0,2.5-0.3,3.8-0.7s2.4-1,3.3-2s1.3-2.2,1.3-3.8c0-1.5-0.5-2.7-1.4-3.6
					s-2.1-1.6-3.6-2.2s-3.1-1.1-4.7-1.5c-1.8-0.5-3.5-1-5.3-1.6c-1.7-0.6-3.3-1.4-4.6-2.3s-2.5-2.1-3.3-3.5
					c-0.8-1.4-1.3-3.2-1.3-5.3c0-2.4,0.7-4.5,2-6.3c1.3-1.8,3.1-3.2,5.3-4.1s4.7-1.5,7.3-1.5c1.5,0,3.1,0.2,4.7,0.5
					c1.6,0.3,3.2,0.9,4.8,1.8c1.6,0.8,2.9,2,4.1,3.4c0.5,0.5,0.8,1.2,0.8,2c0.1,0.8-0.3,1.5-1.1,2.2c-0.6,0.4-1.3,0.6-2,0.6
					c-0.7,0-1.3-0.3-1.8-0.8c-1.2-1.4-2.6-2.5-4.3-3.2c-1.7-0.7-3.6-1.1-5.6-1.1c-1.2,0-2.5,0.2-3.7,0.6c-1.2,0.4-2.3,1-3.1,1.9
					c-0.8,0.9-1.3,2.1-1.3,3.6c0.1,1.5,0.5,2.6,1.4,3.5c0.9,0.9,2.2,1.7,3.7,2.2c1.6,0.6,3.3,1.1,5.2,1.7c1.7,0.4,3.4,0.9,5,1.5
					c1.6,0.6,3,1.3,4.3,2.2c1.3,0.9,2.3,2.1,3.1,3.5c0.8,1.4,1.1,3.2,1.1,5.4c0,2.5-0.7,4.6-2.1,6.4s-3.2,3.2-5.5,4.1
					s-4.8,1.4-7.4,1.4c-3,0-5.9-0.5-8.8-1.7S1261.6,671.5,1259.5,668.7z"/>
			</g>
		</g>
	</g>
</g>
</svg>
