<?xml version="1.0" encoding="utf-8"?>
<!-- Generator: Adobe Illustrator 24.3.0, SVG Export Plug-In . SVG Version: 6.00 Build 0)  -->
<svg version="1.1" xmlns="http://www.w3.org/2000/svg" xmlns:xlink="http://www.w3.org/1999/xlink" x="0px" y="0px"
	 viewBox="0 0 1920 1080" style="enable-background:new 0 0 1920 1080;" xml:space="preserve">
<style type="text/css">
	.st0{stroke:#000000;stroke-miterlimit:10;}
	.st1{fill:#222222;}
	.st2{fill:#E3E3E3;}
	.st3{font-family:'Audiowide-Regular';}
	.st4{font-size:203.3964px;}
</style>
<g id="Layer_2">
	<rect x="0.5" y="-0.5" class="st0" width="1920" height="1080"/>
</g>
<g id="Layer_1">
	<g>
		<g>
			<rect x="280.51" y="193.6" class="st1" width="696.36" height="696.36"/>
			<path d="M976.37,194.1v695.36H281.01V194.1H976.37 M977.37,193.1H280.01v697.36h697.36V193.1L977.37,193.1z"/>
		</g>
		<text transform="matrix(1 0 0 1 477.1104 541.7758)" class="st2 st3 st4">TECHMAN</text>
		<g>
			<g>
				<path class="st2" d="M493.9,632.95c3.66,0,6.94,0.92,9.85,2.74c2.91,1.83,5.21,4.36,6.9,7.59c1.7,3.23,2.54,6.94,2.54,11.14
					c0,4.14-0.85,7.84-2.54,11.1c-1.69,3.26-3.98,5.81-6.86,7.67c-2.88,1.86-6.12,2.78-9.73,2.78c-1.99,0-3.86-0.31-5.61-0.93
					c-1.75-0.62-3.34-1.43-4.76-2.42c-1.43-1-2.62-2.11-3.59-3.35c-0.97-1.24-1.67-2.5-2.1-3.79l1.78-1.05v23.73
					c0,0.92-0.3,1.7-0.89,2.34c-0.59,0.65-1.37,0.97-2.34,0.97c-0.92,0-1.68-0.31-2.3-0.93c-0.62-0.62-0.93-1.41-0.93-2.38v-51.49
					c0-0.97,0.31-1.76,0.93-2.38c0.62-0.62,1.38-0.93,2.3-0.93c0.97,0,1.75,0.31,2.34,0.93c0.59,0.62,0.89,1.41,0.89,2.38v7.1
					l-1.21-0.65c0.38-1.34,1.04-2.64,1.98-3.88c0.94-1.24,2.1-2.33,3.47-3.27c1.37-0.94,2.91-1.68,4.6-2.22
					C490.31,633.22,492.07,632.95,493.9,632.95z M493.17,638.92c-2.69,0-5.07,0.67-7.14,2.02c-2.07,1.35-3.69,3.18-4.84,5.49
					c-1.16,2.31-1.74,4.98-1.74,7.99c0,2.96,0.58,5.62,1.74,7.99c1.16,2.37,2.77,4.22,4.84,5.57c2.07,1.35,4.45,2.02,7.14,2.02
					c2.69,0,5.06-0.67,7.1-2.02c2.04-1.34,3.66-3.2,4.84-5.57c1.18-2.37,1.78-5.03,1.78-7.99c0-3.01-0.59-5.68-1.78-7.99
					c-1.18-2.31-2.8-4.14-4.84-5.49C498.23,639.6,495.86,638.92,493.17,638.92z"/>
				<path class="st2" d="M525.7,675.33c-0.92,0-1.68-0.32-2.3-0.97c-0.62-0.65-0.93-1.42-0.93-2.34v-35.11
					c0-0.97,0.31-1.76,0.93-2.38c0.62-0.62,1.38-0.93,2.3-0.93c0.97,0,1.75,0.31,2.34,0.93c0.59,0.62,0.89,1.41,0.89,2.38v10.57
					l-0.97-1.7c0.32-1.67,0.9-3.29,1.74-4.88c0.83-1.59,1.9-3.01,3.19-4.28c1.29-1.26,2.77-2.26,4.44-2.99
					c1.67-0.73,3.5-1.09,5.49-1.09c1.18,0,2.27,0.28,3.27,0.85c1,0.57,1.49,1.36,1.49,2.38c0,1.13-0.3,1.98-0.89,2.54
					c-0.59,0.57-1.26,0.85-2.02,0.85c-0.7,0-1.37-0.16-2.02-0.48c-0.65-0.32-1.45-0.48-2.42-0.48c-1.35,0-2.68,0.38-4,1.13
					c-1.32,0.75-2.53,1.79-3.63,3.11c-1.1,1.32-1.99,2.83-2.66,4.52c-0.67,1.69-1.01,3.51-1.01,5.45v19.61
					c0,0.92-0.31,1.7-0.93,2.34C527.38,675,526.62,675.33,525.7,675.33z"/>
				<path class="st2" d="M594.06,654.34c0,4.2-0.92,7.94-2.74,11.22c-1.83,3.28-4.32,5.87-7.47,7.75
					c-3.15,1.88-6.71,2.82-10.69,2.82c-3.93,0-7.48-0.94-10.65-2.82c-3.18-1.88-5.69-4.47-7.55-7.75
					c-1.86-3.28-2.78-7.02-2.78-11.22s0.93-7.94,2.78-11.22s4.37-5.86,7.55-7.75c3.17-1.88,6.73-2.82,10.65-2.82
					c3.98,0,7.55,0.94,10.69,2.82c3.15,1.88,5.64,4.47,7.47,7.75C593.15,646.4,594.06,650.14,594.06,654.34z M587.61,654.34
					c0-3.12-0.63-5.85-1.9-8.19c-1.26-2.34-2.99-4.2-5.17-5.57s-4.64-2.06-7.39-2.06c-2.69,0-5.14,0.69-7.34,2.06
					c-2.21,1.37-3.94,3.23-5.21,5.57c-1.26,2.34-1.9,5.07-1.9,8.19c0,3.07,0.63,5.79,1.9,8.15c1.26,2.37,3,4.24,5.21,5.61
					c2.21,1.37,4.65,2.06,7.34,2.06c2.74,0,5.21-0.69,7.39-2.06s3.9-3.24,5.17-5.61C586.97,660.13,587.61,657.41,587.61,654.34z"/>
				<path class="st2" d="M620.54,632.55c2.31,0,4.47,0.39,6.46,1.17c1.99,0.78,3.73,1.79,5.21,3.03c1.48,1.24,2.64,2.53,3.47,3.88
					c0.83,1.34,1.25,2.61,1.25,3.79l-1.53-0.97v-7.02c0-0.92,0.29-1.68,0.89-2.3c0.59-0.62,1.37-0.93,2.34-0.93s1.75,0.31,2.34,0.93
					c0.59,0.62,0.89,1.39,0.89,2.3v35.35c0,4.41-0.93,8.08-2.78,11.02c-1.86,2.93-4.35,5.11-7.47,6.54
					c-3.12,1.42-6.59,2.14-10.41,2.14c-1.61,0-3.4-0.2-5.37-0.61c-1.96-0.4-3.7-0.92-5.21-1.53c-1.51-0.62-2.45-1.25-2.83-1.9
					c-0.81-0.59-1.32-1.21-1.53-1.86c-0.22-0.65-0.11-1.29,0.32-1.94c0.48-0.75,1.12-1.13,1.9-1.13c0.78,0,1.76,0.24,2.95,0.73
					c0.48,0.16,1.25,0.43,2.3,0.81c1.05,0.38,2.25,0.71,3.59,1.01c1.34,0.3,2.66,0.44,3.95,0.44c4.52,0,8-1.2,10.45-3.59
					c2.45-2.39,3.67-5.56,3.67-9.48v-7.51l0.89,0.4c-0.32,1.51-0.98,2.91-1.98,4.2c-1,1.29-2.19,2.44-3.59,3.43
					c-1.4,1-2.97,1.78-4.72,2.34c-1.75,0.56-3.51,0.85-5.29,0.85c-3.77,0-7.16-0.94-10.17-2.82c-3.01-1.88-5.4-4.47-7.14-7.75
					c-1.75-3.28-2.62-7.02-2.62-11.22c0-4.25,0.87-8.02,2.62-11.3c1.75-3.28,4.12-5.85,7.1-7.71S616.82,632.55,620.54,632.55z
					 M621.42,638.52c-2.8,0-5.27,0.69-7.43,2.06c-2.15,1.37-3.85,3.26-5.08,5.65c-1.24,2.39-1.86,5.1-1.86,8.11
					c0,2.96,0.62,5.64,1.86,8.03c1.24,2.39,2.93,4.29,5.08,5.69c2.15,1.4,4.63,2.1,7.43,2.1c2.74,0,5.19-0.69,7.34-2.06
					c2.15-1.37,3.85-3.24,5.08-5.61c1.24-2.37,1.86-5.08,1.86-8.15s-0.62-5.8-1.86-8.19c-1.24-2.39-2.93-4.26-5.08-5.61
					C626.62,639.19,624.17,638.52,621.42,638.52z"/>
				<path class="st2" d="M657.02,675.33c-0.92,0-1.68-0.32-2.3-0.97c-0.62-0.65-0.93-1.42-0.93-2.34v-35.11
					c0-0.97,0.31-1.76,0.93-2.38c0.62-0.62,1.38-0.93,2.3-0.93c0.97,0,1.75,0.31,2.34,0.93c0.59,0.62,0.89,1.41,0.89,2.38v10.57
					l-0.97-1.7c0.32-1.67,0.9-3.29,1.74-4.88c0.83-1.59,1.9-3.01,3.19-4.28c1.29-1.26,2.77-2.26,4.44-2.99
					c1.67-0.73,3.5-1.09,5.49-1.09c1.18,0,2.27,0.28,3.27,0.85c1,0.57,1.49,1.36,1.49,2.38c0,1.13-0.3,1.98-0.89,2.54
					c-0.59,0.57-1.26,0.85-2.02,0.85c-0.7,0-1.37-0.16-2.02-0.48c-0.65-0.32-1.45-0.48-2.42-0.48c-1.35,0-2.68,0.38-4,1.13
					c-1.32,0.75-2.53,1.79-3.63,3.11c-1.1,1.32-1.99,2.83-2.66,4.52c-0.67,1.69-1.01,3.51-1.01,5.45v19.61
					c0,0.92-0.31,1.7-0.93,2.34C658.7,675,657.93,675.33,657.02,675.33z"/>
				<path class="st2" d="M720.13,633.19c0.97,0,1.75,0.31,2.34,0.93c0.59,0.62,0.89,1.39,0.89,2.3v35.59c0,0.92-0.31,1.7-0.93,2.34
					c-0.62,0.65-1.39,0.97-2.3,0.97c-0.97,0-1.75-0.32-2.34-0.97c-0.59-0.65-0.89-1.42-0.89-2.34v-7.67l1.53-0.16
					c0,1.24-0.4,2.54-1.21,3.92s-1.91,2.66-3.31,3.87c-1.4,1.21-3.05,2.21-4.96,2.99c-1.91,0.78-3.94,1.17-6.09,1.17
					c-3.71,0-7.02-0.95-9.93-2.87c-2.91-1.91-5.21-4.51-6.9-7.79c-1.69-3.28-2.54-7.02-2.54-11.22c0-4.25,0.85-8,2.54-11.26
					c1.7-3.25,4-5.81,6.9-7.67c2.91-1.86,6.13-2.78,9.69-2.78c2.31,0,4.47,0.38,6.46,1.13c1.99,0.75,3.73,1.78,5.21,3.07
					c1.48,1.29,2.64,2.72,3.47,4.28c0.83,1.56,1.25,3.12,1.25,4.68l-2.1-0.48v-8.8c0-0.92,0.3-1.68,0.89-2.3
					C718.38,633.5,719.17,633.19,720.13,633.19z M703.51,670.16c2.69,0,5.07-0.7,7.14-2.1c2.07-1.4,3.69-3.3,4.84-5.69
					c1.16-2.39,1.74-5.1,1.74-8.11c0-2.96-0.58-5.62-1.74-7.99c-1.16-2.37-2.77-4.25-4.84-5.65c-2.07-1.4-4.45-2.1-7.14-2.1
					c-2.64,0-4.99,0.69-7.06,2.06c-2.07,1.37-3.7,3.24-4.88,5.61c-1.18,2.37-1.78,5.06-1.78,8.07c0,3.01,0.59,5.72,1.78,8.11
					c1.18,2.39,2.81,4.29,4.88,5.69C698.52,669.46,700.87,670.16,703.51,670.16z"/>
				<path class="st2" d="M755.24,632.95c3.66,0,6.63,0.93,8.92,2.78c2.29,1.86,3.81,4.48,4.56,7.87h-1.21l0.56-1.45
					c0.65-1.51,1.75-2.96,3.31-4.36c1.56-1.4,3.36-2.56,5.41-3.47c2.04-0.91,4.17-1.37,6.38-1.37c3.55,0,6.35,0.77,8.39,2.3
					c2.04,1.53,3.51,3.58,4.4,6.13s1.33,5.42,1.33,8.6v22.03c0,0.92-0.31,1.7-0.93,2.34c-0.62,0.65-1.41,0.97-2.38,0.97
					c-0.92,0-1.68-0.32-2.3-0.97c-0.62-0.65-0.93-1.42-0.93-2.34v-21.87c0-2.04-0.3-3.91-0.89-5.61c-0.59-1.7-1.59-3.05-2.99-4.08
					c-1.4-1.02-3.28-1.53-5.65-1.53c-2.15,0-4.14,0.51-5.97,1.53c-1.83,1.02-3.28,2.38-4.36,4.08c-1.08,1.7-1.61,3.57-1.61,5.61
					v21.87c0,0.92-0.3,1.7-0.89,2.34c-0.59,0.65-1.37,0.97-2.34,0.97c-0.97,0-1.75-0.32-2.34-0.97c-0.59-0.65-0.89-1.42-0.89-2.34
					V649.9c0-1.99-0.3-3.82-0.89-5.49c-0.59-1.67-1.56-3-2.91-4c-1.35-1-3.18-1.49-5.49-1.49c-2.15,0-4.12,0.5-5.89,1.49
					c-1.78,1-3.2,2.33-4.28,4c-1.08,1.67-1.61,3.5-1.61,5.49v22.12c0,0.92-0.31,1.7-0.93,2.34c-0.62,0.65-1.39,0.97-2.3,0.97
					c-0.92,0-1.68-0.32-2.3-0.97c-0.62-0.65-0.93-1.42-0.93-2.34v-35.11c0-0.97,0.31-1.76,0.93-2.38c0.62-0.62,1.38-0.93,2.3-0.93
					c0.97,0,1.75,0.31,2.34,0.93c0.59,0.62,0.89,1.41,0.89,2.38v6.05l-1.78,1.94c0.21-1.4,0.77-2.8,1.65-4.2
					c0.89-1.4,2.03-2.69,3.43-3.87c1.4-1.18,2.96-2.13,4.68-2.83C751.48,633.3,753.31,632.95,755.24,632.95z"/>
				<path class="st2" d="M829.18,632.95c3.66,0,6.63,0.93,8.92,2.78c2.29,1.86,3.81,4.48,4.56,7.87h-1.21l0.57-1.45
					c0.64-1.51,1.75-2.96,3.31-4.36c1.56-1.4,3.36-2.56,5.41-3.47c2.04-0.91,4.17-1.37,6.38-1.37c3.55,0,6.35,0.77,8.39,2.3
					c2.04,1.53,3.51,3.58,4.4,6.13c0.89,2.56,1.33,5.42,1.33,8.6v22.03c0,0.92-0.31,1.7-0.93,2.34s-1.41,0.97-2.38,0.97
					c-0.92,0-1.68-0.32-2.3-0.97s-0.93-1.42-0.93-2.34v-21.87c0-2.04-0.3-3.91-0.89-5.61s-1.59-3.05-2.99-4.08
					c-1.4-1.02-3.28-1.53-5.65-1.53c-2.15,0-4.14,0.51-5.97,1.53c-1.83,1.02-3.28,2.38-4.36,4.08s-1.61,3.57-1.61,5.61v21.87
					c0,0.92-0.3,1.7-0.89,2.34s-1.37,0.97-2.34,0.97s-1.75-0.32-2.34-0.97c-0.59-0.65-0.89-1.42-0.89-2.34V649.9
					c0-1.99-0.3-3.82-0.89-5.49c-0.59-1.67-1.56-3-2.91-4c-1.35-1-3.18-1.49-5.49-1.49c-2.15,0-4.12,0.5-5.89,1.49
					c-1.78,1-3.2,2.33-4.28,4c-1.08,1.67-1.61,3.5-1.61,5.49v22.12c0,0.92-0.31,1.7-0.93,2.34c-0.62,0.65-1.39,0.97-2.3,0.97
					c-0.92,0-1.68-0.32-2.3-0.97c-0.62-0.65-0.93-1.42-0.93-2.34v-35.11c0-0.97,0.31-1.76,0.93-2.38c0.62-0.62,1.38-0.93,2.3-0.93
					c0.97,0,1.75,0.31,2.34,0.93c0.59,0.62,0.89,1.41,0.89,2.38v6.05l-1.78,1.94c0.21-1.4,0.77-2.8,1.65-4.2
					c0.89-1.4,2.03-2.69,3.43-3.87c1.4-1.18,2.96-2.13,4.68-2.83C825.41,633.3,827.24,632.95,829.18,632.95z"/>
				<path class="st2" d="M886.08,627.54c-1.34,0-2.34-0.27-2.99-0.81c-0.65-0.54-0.97-1.37-0.97-2.5v-1.13
					c0-1.13,0.35-1.96,1.05-2.5c0.7-0.54,1.7-0.81,2.99-0.81c1.29,0,2.26,0.27,2.91,0.81c0.65,0.54,0.97,1.37,0.97,2.5v1.13
					c0,1.13-0.34,1.96-1.01,2.5C888.35,627.28,887.37,627.54,886.08,627.54z M889.39,672.02c0,0.92-0.31,1.7-0.93,2.34
					c-0.62,0.65-1.39,0.97-2.3,0.97c-0.97,0-1.76-0.32-2.38-0.97c-0.62-0.65-0.93-1.42-0.93-2.34v-35.76c0-0.91,0.31-1.69,0.93-2.34
					c0.62-0.65,1.41-0.97,2.38-0.97c0.91,0,1.68,0.32,2.3,0.97c0.62,0.65,0.93,1.43,0.93,2.34V672.02z"/>
				<path class="st2" d="M921.75,632.55c3.66,0,6.54,0.75,8.64,2.26c2.1,1.51,3.59,3.52,4.48,6.05c0.89,2.53,1.33,5.38,1.33,8.56
					v22.6c0,0.92-0.31,1.7-0.93,2.34c-0.62,0.65-1.39,0.97-2.3,0.97c-0.97,0-1.75-0.32-2.34-0.97c-0.59-0.65-0.89-1.42-0.89-2.34
					v-22.44c0-2.04-0.31-3.9-0.93-5.57c-0.62-1.67-1.65-3-3.11-4c-1.45-1-3.39-1.49-5.81-1.49c-2.26,0-4.33,0.5-6.21,1.49
					c-1.88,1-3.39,2.33-4.52,4c-1.13,1.67-1.7,3.52-1.7,5.57v22.44c0,0.92-0.31,1.7-0.93,2.34c-0.62,0.65-1.39,0.97-2.3,0.97
					c-0.92,0-1.68-0.32-2.3-0.97c-0.62-0.65-0.93-1.42-0.93-2.34v-35.11c0-0.97,0.31-1.76,0.93-2.38c0.62-0.62,1.38-0.93,2.3-0.93
					c0.97,0,1.75,0.31,2.34,0.93c0.59,0.62,0.89,1.41,0.89,2.38v5.65l-1.61,1.78c0.27-1.4,0.89-2.81,1.86-4.24
					c0.97-1.42,2.18-2.7,3.63-3.83c1.45-1.13,3.07-2.03,4.84-2.7C917.96,632.88,919.81,632.55,921.75,632.55z"/>
				<path class="st2" d="M965.26,632.55c2.31,0,4.47,0.39,6.46,1.17c1.99,0.78,3.73,1.79,5.21,3.03c1.48,1.24,2.64,2.53,3.47,3.88
					c0.83,1.34,1.25,2.61,1.25,3.79l-1.53-0.97v-7.02c0-0.92,0.3-1.68,0.89-2.3c0.59-0.62,1.37-0.93,2.34-0.93
					c0.97,0,1.75,0.31,2.34,0.93c0.59,0.62,0.89,1.39,0.89,2.3v35.35c0,4.41-0.93,8.08-2.78,11.02c-1.86,2.93-4.35,5.11-7.47,6.54
					c-3.12,1.42-6.59,2.14-10.41,2.14c-1.61,0-3.4-0.2-5.37-0.61c-1.96-0.4-3.7-0.92-5.21-1.53c-1.51-0.62-2.45-1.25-2.83-1.9
					c-0.81-0.59-1.32-1.21-1.53-1.86c-0.22-0.65-0.11-1.29,0.32-1.94c0.48-0.75,1.12-1.13,1.9-1.13c0.78,0,1.76,0.24,2.95,0.73
					c0.48,0.16,1.25,0.43,2.3,0.81c1.05,0.38,2.25,0.71,3.59,1.01c1.34,0.3,2.66,0.44,3.96,0.44c4.52,0,8-1.2,10.45-3.59
					c2.45-2.39,3.67-5.56,3.67-9.48v-7.51l0.89,0.4c-0.32,1.51-0.98,2.91-1.98,4.2c-1,1.29-2.19,2.44-3.59,3.43
					c-1.4,1-2.97,1.78-4.72,2.34c-1.75,0.56-3.51,0.85-5.29,0.85c-3.77,0-7.16-0.94-10.17-2.82c-3.01-1.88-5.39-4.47-7.14-7.75
					c-1.75-3.28-2.62-7.02-2.62-11.22c0-4.25,0.87-8.02,2.62-11.3c1.75-3.28,4.12-5.85,7.1-7.71S961.54,632.55,965.26,632.55z
					 M966.14,638.52c-2.8,0-5.27,0.69-7.43,2.06c-2.15,1.37-3.85,3.26-5.08,5.65c-1.24,2.39-1.86,5.1-1.86,8.11
					c0,2.96,0.62,5.64,1.86,8.03c1.24,2.39,2.93,4.29,5.08,5.69c2.15,1.4,4.63,2.1,7.43,2.1c2.74,0,5.19-0.69,7.34-2.06
					c2.15-1.37,3.85-3.24,5.08-5.61c1.24-2.37,1.86-5.08,1.86-8.15s-0.62-5.8-1.86-8.19c-1.24-2.39-2.93-4.26-5.08-5.61
					C971.34,639.19,968.89,638.52,966.14,638.52z"/>
				<path class="st2" d="M1023.61,627.54c-1.34,0-2.34-0.27-2.99-0.81c-0.65-0.54-0.97-1.37-0.97-2.5v-1.13
					c0-1.13,0.35-1.96,1.05-2.5c0.7-0.54,1.7-0.81,2.99-0.81c1.29,0,2.26,0.27,2.91,0.81c0.65,0.54,0.97,1.37,0.97,2.5v1.13
					c0,1.13-0.34,1.96-1.01,2.5C1025.88,627.28,1024.9,627.54,1023.61,627.54z M1026.92,672.02c0,0.92-0.31,1.7-0.93,2.34
					c-0.62,0.65-1.39,0.97-2.3,0.97c-0.97,0-1.76-0.32-2.38-0.97c-0.62-0.65-0.93-1.42-0.93-2.34v-35.76c0-0.91,0.31-1.69,0.93-2.34
					c0.62-0.65,1.41-0.97,2.38-0.97c0.91,0,1.68,0.32,2.3,0.97c0.62,0.65,0.93,1.43,0.93,2.34V672.02z"/>
				<path class="st2" d="M1059.29,632.55c3.66,0,6.54,0.75,8.64,2.26c2.1,1.51,3.59,3.52,4.48,6.05c0.89,2.53,1.33,5.38,1.33,8.56
					v22.6c0,0.92-0.31,1.7-0.93,2.34c-0.62,0.65-1.39,0.97-2.3,0.97c-0.97,0-1.75-0.32-2.34-0.97c-0.59-0.65-0.89-1.42-0.89-2.34
					v-22.44c0-2.04-0.31-3.9-0.93-5.57c-0.62-1.67-1.65-3-3.11-4c-1.45-1-3.39-1.49-5.81-1.49c-2.26,0-4.33,0.5-6.21,1.49
					c-1.88,1-3.39,2.33-4.52,4c-1.13,1.67-1.7,3.52-1.7,5.57v22.44c0,0.92-0.31,1.7-0.93,2.34c-0.62,0.65-1.39,0.97-2.3,0.97
					c-0.92,0-1.68-0.32-2.3-0.97c-0.62-0.65-0.93-1.42-0.93-2.34v-35.11c0-0.97,0.31-1.76,0.93-2.38c0.62-0.62,1.38-0.93,2.3-0.93
					c0.97,0,1.75,0.31,2.34,0.93c0.59,0.62,0.89,1.41,0.89,2.38v5.65l-1.61,1.78c0.27-1.4,0.89-2.81,1.86-4.24
					c0.97-1.42,2.18-2.7,3.63-3.83c1.45-1.13,3.07-2.03,4.84-2.7C1055.49,632.88,1057.35,632.55,1059.29,632.55z"/>
				<path class="st2" d="M1107.87,632.87c0.65,0,1.26,0.18,1.86,0.52c0.59,0.35,1.02,0.88,1.29,1.57l13.4,31.4l-1.29,0.65
					l13.56-32.04c0.59-1.45,1.61-2.15,3.07-2.1c0.81,0,1.51,0.27,2.1,0.81c0.59,0.54,0.89,1.24,0.89,2.1c0,0.32-0.04,0.62-0.12,0.89
					c-0.08,0.27-0.18,0.54-0.28,0.81l-15.58,35.76c-0.59,1.35-1.53,2.05-2.83,2.1c-0.7,0.11-1.36-0.03-1.98-0.4
					c-0.62-0.38-1.09-0.94-1.41-1.7l-15.58-35.76c-0.05-0.16-0.12-0.39-0.2-0.69s-0.12-0.61-0.12-0.93c0-0.7,0.28-1.37,0.85-2.02
					C1106.06,633.19,1106.85,632.87,1107.87,632.87z"/>
				<path class="st2" d="M1170.34,676.13c-4.31,0-8.07-0.91-11.3-2.74c-3.23-1.83-5.74-4.34-7.55-7.55c-1.8-3.2-2.7-6.9-2.7-11.1
					c0-4.68,0.93-8.68,2.78-11.99c1.86-3.31,4.28-5.84,7.26-7.59c2.99-1.75,6.15-2.62,9.48-2.62c2.53,0,4.94,0.46,7.22,1.37
					c2.29,0.92,4.33,2.26,6.13,4.04c1.8,1.78,3.24,3.87,4.32,6.3c1.08,2.42,1.64,5.17,1.7,8.23c-0.05,0.86-0.4,1.57-1.05,2.14
					c-0.65,0.57-1.4,0.85-2.26,0.85h-31.88l-1.45-5.57h31.07l-1.29,1.13v-1.78c-0.22-2.21-0.96-4.1-2.22-5.69
					c-1.26-1.59-2.8-2.81-4.6-3.67c-1.8-0.86-3.7-1.29-5.69-1.29c-1.61,0-3.22,0.3-4.8,0.89c-1.59,0.59-3.01,1.51-4.28,2.75
					c-1.26,1.24-2.27,2.85-3.03,4.84c-0.75,1.99-1.13,4.39-1.13,7.18c0,3.12,0.63,5.87,1.9,8.23c1.26,2.37,3.03,4.24,5.29,5.61
					s4.87,2.06,7.83,2.06c1.94,0,3.59-0.24,4.96-0.73c1.37-0.48,2.57-1.09,3.59-1.82c1.02-0.73,1.88-1.47,2.58-2.22
					c0.7-0.48,1.37-0.73,2.02-0.73c0.81,0,1.48,0.27,2.02,0.81c0.54,0.54,0.81,1.18,0.81,1.94c0,0.92-0.46,1.75-1.37,2.5
					c-1.51,1.67-3.55,3.12-6.13,4.36C1176,675.51,1173.25,676.13,1170.34,676.13z"/>
				<path class="st2" d="M1199.88,627.54c-1.34,0-2.34-0.27-2.99-0.81c-0.65-0.54-0.97-1.37-0.97-2.5v-1.13
					c0-1.13,0.35-1.96,1.05-2.5c0.7-0.54,1.7-0.81,2.99-0.81c1.29,0,2.26,0.27,2.91,0.81c0.65,0.54,0.97,1.37,0.97,2.5v1.13
					c0,1.13-0.34,1.96-1.01,2.5C1202.16,627.28,1201.18,627.54,1199.88,627.54z M1203.19,672.02c0,0.92-0.31,1.7-0.93,2.34
					c-0.62,0.65-1.39,0.97-2.3,0.97c-0.97,0-1.76-0.32-2.38-0.97c-0.62-0.65-0.93-1.42-0.93-2.34v-35.76c0-0.91,0.31-1.69,0.93-2.34
					c0.62-0.65,1.41-0.97,2.38-0.97c0.91,0,1.68,0.32,2.3,0.97c0.62,0.65,0.93,1.43,0.93,2.34V672.02z"/>
				<path class="st2" d="M1235.56,632.55c3.66,0,6.54,0.75,8.64,2.26c2.1,1.51,3.59,3.52,4.48,6.05c0.89,2.53,1.33,5.38,1.33,8.56
					v22.6c0,0.92-0.31,1.7-0.93,2.34c-0.62,0.65-1.39,0.97-2.3,0.97c-0.97,0-1.75-0.32-2.34-0.97c-0.59-0.65-0.89-1.42-0.89-2.34
					v-22.44c0-2.04-0.31-3.9-0.93-5.57c-0.62-1.67-1.65-3-3.11-4c-1.45-1-3.39-1.49-5.81-1.49c-2.26,0-4.33,0.5-6.21,1.49
					c-1.88,1-3.39,2.33-4.52,4c-1.13,1.67-1.7,3.52-1.7,5.57v22.44c0,0.92-0.31,1.7-0.93,2.34c-0.62,0.65-1.39,0.97-2.3,0.97
					c-0.92,0-1.68-0.32-2.3-0.97c-0.62-0.65-0.93-1.42-0.93-2.34v-35.11c0-0.97,0.31-1.76,0.93-2.38c0.62-0.62,1.38-0.93,2.3-0.93
					c0.97,0,1.75,0.31,2.34,0.93c0.59,0.62,0.89,1.41,0.89,2.38v5.65l-1.61,1.78c0.27-1.4,0.89-2.81,1.86-4.24
					c0.97-1.42,2.18-2.7,3.63-3.83c1.45-1.13,3.07-2.03,4.84-2.7C1231.77,632.88,1233.62,632.55,1235.56,632.55z"/>
				<path class="st2" d="M1259.53,668.71c-0.43-0.7-0.63-1.44-0.61-2.22c0.03-0.78,0.47-1.47,1.33-2.06
					c0.59-0.38,1.25-0.54,1.98-0.48c0.73,0.05,1.38,0.4,1.98,1.05c1.51,1.78,3.23,3.19,5.17,4.24c1.94,1.05,4.3,1.57,7.1,1.57
					c1.24-0.05,2.51-0.27,3.83-0.65c1.32-0.38,2.42-1.04,3.31-1.98c0.89-0.94,1.33-2.19,1.33-3.75c0-1.51-0.46-2.7-1.37-3.59
					s-2.11-1.61-3.59-2.18c-1.48-0.57-3.05-1.06-4.72-1.49c-1.78-0.48-3.52-1.02-5.25-1.61c-1.72-0.59-3.27-1.36-4.64-2.3
					c-1.37-0.94-2.48-2.13-3.31-3.55c-0.83-1.43-1.25-3.19-1.25-5.29c0-2.42,0.66-4.52,1.98-6.3c1.32-1.78,3.08-3.15,5.29-4.12
					s4.65-1.45,7.35-1.45c1.51,0,3.08,0.17,4.72,0.52c1.64,0.35,3.24,0.94,4.8,1.78c1.56,0.83,2.93,1.98,4.12,3.43
					c0.48,0.54,0.75,1.21,0.81,2.02c0.05,0.81-0.3,1.53-1.05,2.18c-0.59,0.43-1.25,0.63-1.98,0.61c-0.73-0.03-1.33-0.28-1.82-0.77
					c-1.18-1.4-2.62-2.46-4.32-3.19c-1.69-0.73-3.57-1.09-5.61-1.09c-1.24,0-2.48,0.2-3.71,0.61c-1.24,0.4-2.27,1.04-3.11,1.9
					c-0.83,0.86-1.25,2.07-1.25,3.63c0.05,1.45,0.54,2.64,1.45,3.55c0.91,0.92,2.15,1.65,3.71,2.22c1.56,0.56,3.28,1.12,5.17,1.65
					c1.72,0.43,3.38,0.93,4.96,1.49c1.59,0.56,3.03,1.31,4.32,2.22c1.29,0.92,2.31,2.09,3.07,3.51c0.75,1.43,1.13,3.22,1.13,5.37
					c0,2.48-0.7,4.62-2.1,6.42c-1.4,1.8-3.24,3.18-5.53,4.12c-2.29,0.94-4.75,1.41-7.38,1.41c-2.96,0-5.89-0.55-8.8-1.65
					S1261.63,671.45,1259.53,668.71z"/>
			</g>
		</g>
	</g>
</g>
</svg>
