<svg viewBox="0 0 173.1002 173.1" width="62" height="61.99992836518964" xmlns="http://www.w3.org/2000/svg" xmlns:xlink="http://www.w3.org/1999/xlink" preserveAspectRatio="none"><defs></defs><style>.icon1X9xQCpEEx {fill:#F1F1F1;fill-opacity:1;}.icon2X9xQCpEEx {fill:#EBC42A;fill-opacity:1;}.icon3X9xQCpEEx {fill:#777777;fill-opacity:1;}</style><g opacity="1" transform="rotate(0 0 0)">
<svg width="173.1002" height="173.1" x="0" y="0" version="1.1" preserveAspectRatio="none" viewBox="-5.065716075780546e-12 0 80 80">
  <g transform="matrix(1 0 0 1 0 0)" class="icon1X9xQCpEEx"><g transform="translate(0,-972.36214)"><path style="color:#000000;font-style:normal;font-variant:normal;font-weight:normal;font-stretch:normal;font-size:medium;line-height:normal;text-indent:0;text-align:start;text-decoration:none;text-decoration-line:none;text-decoration-style:solid;text-decoration-color:#000000;letter-spacing:normal;word-spacing:normal;text-transform:none;direction:ltr;block-progression:tb;writing-mode:lr-tb;baseline-shift:baseline;text-anchor:start;white-space:normal;clip-rule:nonzero;display:inline;overflow:visible;visibility:visible;opacity:1;isolation:auto;mix-blend-mode:normal;color-interpolation:sRGB;color-interpolation-filters:linearRGB;solid-color:#000000;solid-opacity:1;fill-rule:evenodd;stroke-width:1px;stroke-linecap:butt;stroke-linejoin:miter;stroke-miterlimit:4;stroke-dasharray:none;stroke-dashoffset:0;color-rendering:auto;image-rendering:auto;shape-rendering:auto;text-rendering:auto;enable-background:accumulate" d="M 40 0 C 17.914532 0 0 17.91448 0 40 C -1.1e-005 62.0854 17.914524 80 40 80 C 62.085476 80 80.000011 62.0854 80 40 C 80 17.91448 62.085468 0 40 0 z M 40 1 C 61.545028 1 79 18.45492 79 40 C 79.000011 61.545 61.545035 79 40 79 C 18.454965 79 0.999989 61.545 1 40 C 1 18.45492 18.454972 1 40 1 z M 41.5 16 C 40.677495 16 40 16.67749 40 17.5 C 40 18.14684 40.420972 18.69775 41 18.90625 L 41 20.767578 L 37.986328 23.267578 L 37.996094 32 L 35 32 L 35 26.259766 L 30 22.259766 L 30 19.90625 C 30.579015 19.69775 30.999974 19.14686 31 18.5 C 31 17.67749 30.322505 17 29.5 17 C 28.677495 17 28 17.67749 28 18.5 C 28.000026 19.14686 28.420985 19.69775 29 19.90625 L 29 22.740234 L 34 26.740234 L 34 32 L 31.5 32 L 31.5 27.650391 L 27.917969 24.962891 C 27.966889 24.815691 28 24.6628 28 24.5 C 28 23.6775 27.322505 23 26.5 23 C 25.677495 23 25 23.6775 25 24.5 C 25 25.3225 25.677495 26 26.5 26 C 26.797249 26 27.074356 25.909913 27.308594 25.757812 L 30.5 28.150391 L 30.5 32 L 22.5 32 C 21.123649 32 20 33.1237 20 34.5 L 20 57 L 16.5 57 A 0.50005 0.50005 0 0 0 16 57.5 L 16 59.5 C 16 61.4304 17.569649 63 19.5 63 L 60.5 63 C 62.430351 63 64 61.4304 64 59.5 L 64 57.5 A 0.50005 0.50005 0 0 0 63.5 57 L 60 57 L 60 34.5 C 60 33.1237 58.876351 32 57.5 32 L 49 32 L 49 28.150391 L 52.449219 25.564453 C 52.720749 25.832153 53.092651 26 53.5 26 C 54.322505 26 55 25.3225 55 24.5 C 55 23.6775 54.322505 23 53.5 23 C 52.677495 23 52 23.6775 52 24.5 C 52 24.548 52.009202 24.591972 52.013672 24.638672 L 48 27.650391 L 48 32 L 46 32 L 46 26.740234 L 51 22.740234 L 51 19.90625 C 51.579015 19.69775 51.999974 19.14686 52 18.5 C 52 17.67749 51.322505 17 50.5 17 C 49.677495 17 49 17.67749 49 18.5 C 49.000026 19.14686 49.420985 19.69775 50 19.90625 L 50 22.259766 L 45 26.259766 L 45 32 L 42.001953 32 L 42.027344 25.246094 L 45.525391 22.625 C 45.789041 22.8539 46.127158 23 46.5 23 C 47.322505 23 48 22.3225 48 21.5 C 48 20.6775 47.322505 20 46.5 20 C 45.677495 20 45 20.6775 45 21.5 C 45 21.586 45.011191 21.6678 45.025391 21.75 L 41.027344 24.744141 L 41.001953 32 L 38.996094 32 L 38.986328 23.736328 L 42 21.236328 L 42 18.90625 C 42.579028 18.69775 43 18.14684 43 17.5 C 43 16.67749 42.322505 16 41.5 16 z M 41.5 17 C 41.782065 17 42 17.21793 42 17.5 C 42 17.78206 41.782065 18 41.5 18 C 41.217935 18 41 17.78206 41 17.5 C 41 17.21793 41.217935 17 41.5 17 z M 29.5 18 C 29.782065 18 30 18.21793 30 18.5 C 29.999989 18.78206 29.782056 19 29.5 19 C 29.217944 19 29.000011 18.78206 29 18.5 C 29 18.21793 29.217935 18 29.5 18 z M 50.5 18 C 50.782065 18 51 18.21793 51 18.5 C 50.999989 18.78206 50.782056 19 50.5 19 C 50.217944 19 50.000011 18.78206 50 18.5 C 50 18.21793 50.217935 18 50.5 18 z M 46.5 21 C 46.782065 21 47 21.218 47 21.5 C 47 21.7821 46.782065 22 46.5 22 C 46.217935 22 46 21.7821 46 21.5 C 46 21.218 46.217935 21 46.5 21 z M 26.5 24 C 26.782065 24 27 24.218 27 24.5 C 27 24.7821 26.782065 25 26.5 25 C 26.217935 25 26 24.7821 26 24.5 C 26 24.218 26.217935 24 26.5 24 z M 53.5 24 C 53.782065 24 54 24.218 54 24.5 C 54 24.7821 53.782065 25 53.5 25 C 53.217935 25 53 24.7821 53 24.5 C 53 24.218 53.217935 24 53.5 24 z M 22.5 33 L 57.5 33 C 58.339649 33 59 33.6604 59 34.5 L 59 57 L 21 57 L 21 34.5 C 21 33.6604 21.660351 33 22.5 33 z M 23.5 35 A 0.50005 0.50005 0 0 0 23 35.5 L 23 54.5 A 0.50005 0.50005 0 0 0 23.5 55 L 56.5 55 A 0.50005 0.50005 0 0 0 57 54.5 L 57 35.5 A 0.50005 0.50005 0 0 0 56.5 35 L 23.5 35 z M 24 36 L 30.5 36 L 30.5 38.851562 L 27.310547 41.244141 C 27.075831 41.091341 26.798225 41 26.5 41 C 25.677495 41 25 41.6775 25 42.5 C 25 43.3225 25.677495 44 26.5 44 C 27.322505 44 28 43.3225 28 42.5 C 28 42.338 27.966509 42.183909 27.917969 42.037109 L 31.5 39.351562 L 31.5 36 L 34 36 L 34 40.259766 L 29 44.259766 L 29 47.091797 C 28.420972 47.300297 28 47.8532 28 48.5 C 28 49.3225 28.677495 50 29.5 50 C 30.322505 50 31 49.3225 31 48.5 C 31 47.8532 30.579028 47.300297 30 47.091797 L 30 44.740234 L 35 40.740234 L 35 36 L 37.990234 36 L 38 43.257812 L 35.328125 45.253906 C 35.089992 45.094406 34.805348 45 34.5 45 C 33.677495 45 33 45.6775 33 46.5 C 33 47.3225 33.677495 48 34.5 48 C 35.322505 48 36 47.3225 36 46.5 C 36 46.3444 35.968728 46.196388 35.923828 46.054688 L 39 43.759766 L 38.990234 36 L 41.025391 36 L 41 44.734375 L 44.013672 47.234375 L 44.013672 49.087891 C 43.427747 49.292591 43 49.8482 43 50.5 C 43 51.3225 43.677495 52 44.5 52 C 45.322505 52 46 51.3225 46 50.5 C 46 49.8582 45.58581 49.307903 45.013672 49.095703 L 45.013672 46.763672 L 42.001953 44.265625 L 42.025391 36 L 45 36 L 45 41.160156 L 50 44.660156 L 50 47.091797 C 49.420972 47.300297 49 47.8532 49 48.5 C 49 49.3225 49.677495 50 50.5 50 C 51.322505 50 52 49.3225 52 48.5 C 52 47.8532 51.579028 47.300297 51 47.091797 L 51 44.140625 L 46 40.640625 L 46 36 L 48 36 L 48 39.25 L 52.042969 42.160156 C 52.017069 42.269756 52 42.383 52 42.5 C 52 43.3225 52.677495 44 53.5 44 C 54.322505 44 55 43.3225 55 42.5 C 55 41.6775 54.322505 41 53.5 41 C 53.161892 41 52.851722 41.118547 52.599609 41.310547 L 49.041016 38.75 L 49.041016 36 L 56 36 L 56 54 L 24 54 L 24 36 z M 26.5 42 C 26.782065 42 27 42.218 27 42.5 C 27 42.7821 26.782065 43 26.5 43 C 26.217935 43 26 42.7821 26 42.5 C 26 42.218 26.217935 42 26.5 42 z M 53.5 42 C 53.782065 42 54 42.218 54 42.5 C 54 42.7821 53.782065 43 53.5 43 C 53.217935 43 53 42.7821 53 42.5 C 53 42.218 53.217935 42 53.5 42 z M 34.5 46 C 34.782065 46 35 46.218 35 46.5 C 35 46.7821 34.782065 47 34.5 47 C 34.217935 47 34 46.7821 34 46.5 C 34 46.218 34.217935 46 34.5 46 z M 29.5 48 C 29.782065 48 30 48.218 30 48.5 C 30 48.7821 29.782065 49 29.5 49 C 29.217935 49 29 48.7821 29 48.5 C 29 48.218 29.217935 48 29.5 48 z M 50.5 48 C 50.782065 48 51 48.218 51 48.5 C 51 48.7821 50.782065 49 50.5 49 C 50.217935 49 50 48.7821 50 48.5 C 50 48.218 50.217935 48 50.5 48 z M 44.5 50 C 44.782065 50 45 50.218 45 50.5 C 45 50.7821 44.782065 51 44.5 51 C 44.217935 51 44 50.7821 44 50.5 C 44 50.218 44.217935 50 44.5 50 z M 46.949219 57.998047 L 63 57.998047 L 63 59.498047 C 63 60.891747 61.893649 61.998047 60.5 61.998047 L 19.5 61.998047 C 18.106351 61.998047 17 60.891747 17 59.498047 L 17 58 L 34.050781 58 C 34.284672 59.1371 35.295693 59.998047 36.5 59.998047 L 44.5 59.998047 C 45.704307 59.998047 46.715328 59.135247 46.949219 57.998047 z M 35.205078 58 L 45.794922 58 C 45.578052 58.5581 45.142689 59 44.5 59 L 36.5 59 C 35.857311 59 35.421948 58.5581 35.205078 58 z " transform="translate(0,972.36214)"></path></g></g>
</svg>
</g></svg>