<?xml version="1.0" encoding="utf-8"?>
<!-- Generator: Adobe Illustrator 24.3.0, SVG Export Plug-In . SVG Version: 6.00 Build 0)  -->
<svg version="1.1" id="Layer_2" xmlns="http://www.w3.org/2000/svg" xmlns:xlink="http://www.w3.org/1999/xlink" x="0px" y="0px"
	 viewBox="0 0 1280 1024" style="enable-background:new 0 0 1280 1024;" xml:space="preserve">
<style type="text/css">
	.st0{fill:#0C0C0B;}
	.st1{fill-rule:evenodd;clip-rule:evenodd;fill:#E3E3E3;}
	.st2{font-family:'MyriadPro-Regular';}
	.st3{font-size:12px;}
	.st4{fill:#FFFFFF;}
	.st5{font-family:'Audiowide-Regular';}
	.st6{font-size:209.7036px;}
	.st7{fill:none;}
	.st8{font-family:'Questrial-Regular';}
	.st9{font-size:50.9935px;}
</style>
<rect class="st0" width="1286" height="1032"/>
<g id="Layer_1">
	<g transform="rotate(0 0 0)">
		<g transform="matrix(1 0 0 1 0 0)">
			<g transform="translate(0,-972.36214)">
				<path class="st1" d="M640,1052.14c-112.96,0-204.59,90.97-204.59,203.11c0,112.14,91.63,203.11,204.59,203.11
					s204.59-90.97,204.59-203.11C844.59,1143.11,752.96,1052.14,640,1052.14z M640,1057.22c110.2,0,199.48,88.63,199.48,198.03
					c0,109.4-89.28,198.03-199.48,198.03s-199.48-88.63-199.48-198.03C440.52,1145.85,529.8,1057.22,640,1057.22z M647.67,1133.39
					c-4.21,0-7.67,3.44-7.67,7.62c0,3.28,2.15,6.08,5.11,7.14v9.45l-15.41,12.69l0.05,44.34h-15.32v-29.15l-25.57-20.31v-11.95
					c2.96-1.06,5.11-3.86,5.11-7.14c0-4.18-3.47-7.62-7.67-7.62c-4.21,0-7.67,3.44-7.67,7.62c0,3.28,2.15,6.08,5.11,7.14v14.39
					l25.57,20.31v26.71h-12.79v-22.09l-18.32-13.65c0.25-0.75,0.42-1.52,0.42-2.35c0-4.18-3.47-7.62-7.67-7.62s-7.67,3.44-7.67,7.62
					c0,4.18,3.47,7.62,7.67,7.62c1.52,0,2.94-0.46,4.14-1.23l16.32,12.15v19.55h-40.92c-7.04,0-12.79,5.71-12.79,12.69v114.25h-17.9
					c-1.41,0-2.56,1.14-2.56,2.54v10.16c0,9.8,8.03,17.77,17.9,17.77h209.71c9.87,0,17.9-7.97,17.9-17.77v-10.16
					c0-1.4-1.15-2.54-2.56-2.54h-17.9v-114.25c0-6.99-5.75-12.69-12.79-12.69h-43.48v-19.55l17.64-13.13
					c1.39,1.36,3.29,2.21,5.37,2.21c4.21,0,7.67-3.44,7.67-7.62c0-4.18-3.47-7.62-7.67-7.62s-7.67,3.44-7.67,7.62
					c0,0.24,0.05,0.47,0.07,0.7l-20.53,15.29v22.09h-10.23v-26.71l25.57-20.31v-14.39c2.96-1.06,5.11-3.86,5.11-7.14
					c0-4.18-3.47-7.62-7.67-7.62c-4.21,0-7.67,3.44-7.67,7.62c0,3.28,2.15,6.08,5.11,7.14v11.95l-25.57,20.31v29.15h-15.33
					l0.13-34.29l17.89-13.31c1.35,1.16,3.08,1.9,4.98,1.9c4.21,0,7.67-3.44,7.67-7.62c0-4.18-3.47-7.62-7.67-7.62
					c-4.21,0-7.67,3.44-7.67,7.62c0,0.44,0.06,0.85,0.13,1.27l-20.45,15.2l-0.13,36.84h-10.26l-0.05-41.96l15.41-12.69v-11.83
					c2.96-1.06,5.11-3.86,5.11-7.14C655.34,1136.83,651.88,1133.39,647.67,1133.39z M647.67,1138.46c1.44,0,2.56,1.11,2.56,2.54
					c0,1.43-1.11,2.54-2.56,2.54c-1.44,0-2.56-1.11-2.56-2.54C645.11,1139.57,646.23,1138.46,647.67,1138.46z M586.29,1143.54
					c1.44,0,2.56,1.11,2.56,2.54c0,1.43-1.11,2.54-2.56,2.54c-1.44,0-2.56-1.11-2.56-2.54
					C583.74,1144.65,584.85,1143.54,586.29,1143.54z M693.71,1143.54c1.44,0,2.56,1.11,2.56,2.54c0,1.43-1.11,2.54-2.56,2.54
					c-1.44,0-2.56-1.11-2.56-2.54C691.15,1144.65,692.26,1143.54,693.71,1143.54z M673.25,1158.78c1.44,0,2.56,1.11,2.56,2.54
					c0,1.43-1.11,2.54-2.56,2.54c-1.44,0-2.56-1.11-2.56-2.54C670.69,1159.88,671.8,1158.78,673.25,1158.78z M570.95,1174.01
					c1.44,0,2.56,1.11,2.56,2.54c0,1.43-1.11,2.54-2.56,2.54c-1.44,0-2.56-1.11-2.56-2.54
					C568.39,1175.12,569.51,1174.01,570.95,1174.01z M709.05,1174.01c1.44,0,2.56,1.11,2.56,2.54c0,1.43-1.11,2.54-2.56,2.54
					c-1.44,0-2.56-1.11-2.56-2.54C706.49,1175.12,707.61,1174.01,709.05,1174.01z M550.49,1219.71h179.02
					c4.29,0,7.67,3.35,7.67,7.62v114.25H542.82v-114.25C542.82,1223.06,546.2,1219.71,550.49,1219.71z M555.61,1229.86
					c-1.41,0-2.56,1.14-2.56,2.54v96.48c0,1.4,1.15,2.54,2.56,2.54h168.79c1.41,0,2.56-1.14,2.56-2.54v-96.48
					c0-1.4-1.15-2.54-2.56-2.54H555.61z M558.16,1234.94h33.25v14.48l-16.31,12.15c-1.2-0.78-2.62-1.24-4.15-1.24
					c-4.21,0-7.67,3.44-7.67,7.62c0,4.18,3.47,7.62,7.67,7.62s7.67-3.44,7.67-7.62c0-0.82-0.17-1.61-0.42-2.35l18.32-13.64v-17.02
					h12.79v21.63l-25.57,20.31v14.38c-2.96,1.06-5.11,3.87-5.11,7.15c0,4.18,3.47,7.62,7.67,7.62c4.21,0,7.67-3.44,7.67-7.62
					c0-3.28-2.15-6.09-5.11-7.15v-11.94l25.57-20.31v-24.07h15.29l0.05,36.85l-13.67,10.14c-1.22-0.81-2.67-1.29-4.24-1.29
					c-4.21,0-7.67,3.44-7.67,7.62s3.47,7.62,7.67,7.62s7.67-3.44,7.67-7.62c0-0.79-0.16-1.54-0.39-2.26l15.73-11.65l-0.05-39.4
					h10.41l-0.13,44.35l15.41,12.69v9.41c-3,1.04-5.18,3.86-5.18,7.17c0,4.18,3.47,7.62,7.67,7.62c4.21,0,7.67-3.44,7.67-7.62
					c0-3.26-2.12-6.05-5.04-7.13v-11.84l-15.4-12.68l0.12-41.97h15.21v26.2l25.57,17.77v12.35c-2.96,1.06-5.11,3.87-5.11,7.15
					c0,4.18,3.47,7.62,7.67,7.62c4.21,0,7.67-3.44,7.67-7.62c0-3.28-2.15-6.09-5.11-7.15v-14.99l-25.57-17.77v-23.56h10.23v16.5
					l20.68,14.78c-0.13,0.56-0.22,1.13-0.22,1.73c0,4.18,3.47,7.62,7.67,7.62s7.67-3.44,7.67-7.62c0-4.18-3.47-7.62-7.67-7.62
					c-1.73,0-3.32,0.6-4.61,1.58l-18.2-13v-13.96h35.59v91.4H558.16V1234.94z M570.95,1265.41c1.44,0,2.56,1.11,2.56,2.54
					c0,1.43-1.11,2.54-2.56,2.54c-1.44,0-2.56-1.11-2.56-2.54C568.39,1266.51,569.51,1265.41,570.95,1265.41z M709.05,1265.41
					c1.44,0,2.56,1.11,2.56,2.54c0,1.43-1.11,2.54-2.56,2.54c-1.44,0-2.56-1.11-2.56-2.54
					C706.49,1266.51,707.61,1265.41,709.05,1265.41z M611.87,1285.72c1.44,0,2.56,1.11,2.56,2.54c0,1.43-1.11,2.54-2.56,2.54
					s-2.56-1.11-2.56-2.54C609.31,1286.83,610.43,1285.72,611.87,1285.72z M586.29,1295.87c1.44,0,2.56,1.11,2.56,2.54
					c0,1.43-1.11,2.54-2.56,2.54c-1.44,0-2.56-1.11-2.56-2.54C583.74,1296.98,584.85,1295.87,586.29,1295.87z M693.71,1295.87
					c1.44,0,2.56,1.11,2.56,2.54c0,1.43-1.11,2.54-2.56,2.54c-1.44,0-2.56-1.11-2.56-2.54
					C691.15,1296.98,692.26,1295.87,693.71,1295.87z M663.02,1306.03c1.44,0,2.56,1.11,2.56,2.54c0,1.43-1.11,2.54-2.56,2.54
					c-1.44,0-2.56-1.11-2.56-2.54C660.46,1307.14,661.57,1306.03,663.02,1306.03z M675.54,1346.64h82.1v7.62
					c0,7.08-5.66,12.69-12.79,12.69H535.15c-7.13,0-12.79-5.62-12.79-12.69v-7.61h87.21c1.2,5.77,6.37,10.15,12.53,10.15h40.92
					C669.18,1356.8,674.35,1352.42,675.54,1346.64z M615.47,1346.65h54.17c-1.11,2.83-3.34,5.08-6.62,5.08H622.1
					C618.81,1351.73,616.58,1349.49,615.47,1346.65z"/>
			</g>
		</g>
	</g>
	<text transform="matrix(1 0 0 1 316.1626 717.2324)" class="st2 st3">Lorem ipsum</text>
</g>
<text transform="matrix(0.5543 0 0 1 307.7454 699.5137)" class="st4 st5 st6">TECHMAN</text>
<rect x="851.7" y="645.56" class="st7" width="18.6" height="5.81"/>
<text transform="matrix(1 0 0 1 395.209 796.8545)" class="st4 st8 st9">programming in veins</text>
</svg>
