<?xml version="1.0" encoding="utf-8"?>
<!-- Generator: Adobe Illustrator 24.3.0, SVG Export Plug-In . SVG Version: 6.00 Build 0)  -->
<svg version="1.1" id="Layer_2" xmlns="http://www.w3.org/2000/svg" xmlns:xlink="http://www.w3.org/1999/xlink" x="0px" y="0px"
	 viewBox="0 0 1280 1024" style="enable-background:new 0 0 1280 1024;" xml:space="preserve">
<style type="text/css">
	.st0{fill:#0C0C0B;}
	.st1{fill-rule:evenodd;clip-rule:evenodd;fill:#E3E3E3;}
	.st2{font-family:'MyriadPro-Regular';}
	.st3{font-size:12px;}
	.st4{fill:#FFFFFF;}
	.st5{font-family:'Audiowide-Regular';}
	.st6{font-size:191.9275px;}
	.st7{fill:none;}
	.st8{font-family:'Questrial-Regular';}
	.st9{font-size:50.9935px;}
</style>
<rect class="st0" width="1286" height="1032"/>
<g id="Layer_1">
	<g transform="rotate(0 0 0)">
		<g transform="matrix(1 0 0 1 0 0)">
			<g transform="translate(0,-972.36214)">
				<path class="st1" d="M632,1042.69c-118.16,0-214,95.15-214,212.45c0,117.3,95.84,212.45,214,212.45s214-95.15,214-212.45
					C846,1137.83,750.16,1042.69,632,1042.69z M632,1048c115.27,0,208.65,92.71,208.65,207.14c0,114.43-93.38,207.14-208.65,207.14
					s-208.65-92.71-208.65-207.14C423.35,1140.7,516.73,1048,632,1048z M640.03,1127.66c-4.4,0-8.03,3.6-8.03,7.97
					c0,3.44,2.25,6.36,5.35,7.47v9.89l-16.12,13.28l0.05,46.38h-16.03v-30.49l-26.75-21.24v-12.5c3.1-1.11,5.35-4.03,5.35-7.47
					c0-4.37-3.62-7.97-8.02-7.97s-8.03,3.6-8.03,7.97c0,3.44,2.25,6.36,5.35,7.47v15.05l26.75,21.24v27.94h-13.38v-23.1
					l-19.16-14.27c0.26-0.78,0.44-1.59,0.44-2.46c0-4.37-3.62-7.97-8.02-7.97c-4.4,0-8.03,3.6-8.03,7.97c0,4.37,3.62,7.97,8.03,7.97
					c1.59,0,3.07-0.48,4.33-1.29l17.07,12.71v20.45h-42.8c-7.36,0-13.38,5.97-13.38,13.28v119.5h-18.73c-1.48,0-2.67,1.19-2.67,2.66
					v10.62c0,10.25,8.4,18.59,18.73,18.59h219.35c10.33,0,18.73-8.34,18.73-18.59v-10.62c0-1.47-1.2-2.66-2.68-2.66H739v-119.5
					c0-7.31-6.01-13.28-13.38-13.28h-45.47v-20.45l18.45-13.73c1.45,1.42,3.44,2.31,5.62,2.31c4.4,0,8.03-3.6,8.03-7.97
					c0-4.37-3.62-7.97-8.03-7.97c-4.4,0-8.02,3.6-8.02,7.97c0,0.26,0.05,0.49,0.07,0.74l-21.47,16v23.1h-10.7v-27.94l26.75-21.24
					v-15.05c3.1-1.11,5.35-4.03,5.35-7.47c0-4.37-3.62-7.97-8.03-7.97s-8.02,3.6-8.02,7.97c0,3.44,2.25,6.36,5.35,7.47v12.5
					l-26.75,21.24v30.49h-16.04l0.14-35.87l18.71-13.92c1.41,1.22,3.22,1.99,5.21,1.99c4.4,0,8.02-3.6,8.02-7.97
					c0-4.37-3.62-7.97-8.02-7.97c-4.4,0-8.03,3.6-8.03,7.97c0,0.46,0.06,0.89,0.14,1.33l-21.39,15.9l-0.14,38.54h-10.73l-0.05-43.89
					l16.12-13.28v-12.38c3.1-1.11,5.35-4.03,5.35-7.47C648.05,1131.26,644.43,1127.66,640.03,1127.66z M640.03,1132.98
					c1.51,0,2.67,1.16,2.67,2.66c0,1.5-1.17,2.66-2.67,2.66c-1.51,0-2.68-1.16-2.68-2.66
					C637.35,1134.13,638.52,1132.98,640.03,1132.98z M575.83,1138.29c1.51,0,2.67,1.16,2.67,2.66c0,1.5-1.17,2.66-2.67,2.66
					c-1.51,0-2.67-1.16-2.67-2.66C573.15,1139.44,574.32,1138.29,575.83,1138.29z M688.17,1138.29c1.51,0,2.67,1.16,2.67,2.66
					c0,1.5-1.17,2.66-2.67,2.66c-1.51,0-2.67-1.16-2.67-2.66C685.5,1139.44,686.67,1138.29,688.17,1138.29z M666.78,1154.22
					c1.51,0,2.67,1.16,2.67,2.66c0,1.5-1.17,2.66-2.67,2.66c-1.51,0-2.68-1.16-2.68-2.66
					C664.1,1155.38,665.27,1154.22,666.78,1154.22z M559.78,1170.15c1.51,0,2.67,1.16,2.67,2.66c0,1.5-1.17,2.66-2.67,2.66
					c-1.51,0-2.68-1.16-2.68-2.66C557.1,1171.31,558.27,1170.15,559.78,1170.15z M704.22,1170.15c1.51,0,2.68,1.16,2.68,2.66
					c0,1.5-1.17,2.66-2.68,2.66c-1.51,0-2.67-1.16-2.67-2.66C701.55,1171.31,702.72,1170.15,704.22,1170.15z M538.38,1217.96h187.25
					c4.49,0,8.03,3.51,8.03,7.97v119.5h-203.3v-119.5C530.35,1221.46,533.88,1217.96,538.38,1217.96z M543.72,1228.58
					c-1.48,0-2.67,1.19-2.67,2.66v100.91c0,1.47,1.2,2.66,2.67,2.66h176.55c1.48,0,2.67-1.19,2.67-2.66v-100.91
					c0-1.47-1.2-2.66-2.67-2.66H543.72z M546.4,1233.89h34.77v15.15l-17.06,12.71c-1.26-0.81-2.74-1.3-4.34-1.3
					c-4.4,0-8.03,3.6-8.03,7.97c0,4.37,3.62,7.97,8.03,7.97c4.4,0,8.02-3.6,8.02-7.97c0-0.86-0.18-1.68-0.44-2.46l19.16-14.26v-17.8
					h13.38v22.62l-26.75,21.24v15.04c-3.1,1.11-5.35,4.04-5.35,7.48c0,4.37,3.62,7.97,8.03,7.97s8.02-3.6,8.02-7.97
					c0-3.44-2.25-6.37-5.35-7.48v-12.49l26.75-21.24v-25.18h16l0.05,38.55l-14.29,10.6c-1.27-0.85-2.8-1.35-4.43-1.35
					c-4.4,0-8.03,3.6-8.03,7.97c0,4.37,3.62,7.97,8.03,7.97s8.02-3.6,8.02-7.97c0-0.83-0.17-1.61-0.41-2.37l16.46-12.19l-0.05-41.21
					h10.89l-0.14,46.39l16.12,13.28v9.84c-3.13,1.09-5.42,4.04-5.42,7.5c0,4.37,3.62,7.97,8.03,7.97s8.02-3.6,8.02-7.97
					c0-3.41-2.22-6.33-5.28-7.46v-12.39l-16.11-13.27l0.13-43.9h15.91v27.41l26.75,18.59v12.91c-3.1,1.11-5.35,4.04-5.35,7.48
					c0,4.37,3.62,7.97,8.02,7.97s8.03-3.6,8.03-7.97c0-3.44-2.25-6.37-5.35-7.48v-15.67l-26.75-18.59v-24.65h10.7v17.26l21.63,15.46
					c-0.14,0.58-0.23,1.18-0.23,1.8c0,4.37,3.62,7.97,8.02,7.97c4.4,0,8.03-3.6,8.03-7.97c0-4.37-3.62-7.97-8.03-7.97
					c-1.81,0-3.47,0.63-4.82,1.65l-19.04-13.6v-14.61h37.23v95.6H546.4V1233.89z M559.78,1265.76c1.51,0,2.67,1.16,2.67,2.66
					c0,1.5-1.17,2.66-2.67,2.66c-1.51,0-2.68-1.16-2.68-2.66C557.1,1266.91,558.27,1265.76,559.78,1265.76z M704.22,1265.76
					c1.51,0,2.68,1.16,2.68,2.66c0,1.5-1.17,2.66-2.68,2.66c-1.51,0-2.67-1.16-2.67-2.66
					C701.55,1266.91,702.72,1265.76,704.22,1265.76z M602.58,1287c1.51,0,2.67,1.16,2.67,2.66c0,1.5-1.17,2.66-2.67,2.66
					c-1.51,0-2.67-1.16-2.67-2.66C599.9,1288.16,601.07,1287,602.58,1287z M575.83,1297.62c1.51,0,2.67,1.16,2.67,2.66
					c0,1.5-1.17,2.66-2.67,2.66s-2.67-1.16-2.67-2.66C573.15,1298.78,574.32,1297.62,575.83,1297.62z M688.17,1297.62
					c1.51,0,2.67,1.16,2.67,2.66c0,1.5-1.17,2.66-2.67,2.66c-1.51,0-2.67-1.16-2.67-2.66
					C685.5,1298.78,686.67,1297.62,688.17,1297.62z M656.08,1308.25c1.51,0,2.67,1.16,2.67,2.66c0,1.5-1.17,2.66-2.67,2.66
					c-1.51,0-2.67-1.16-2.67-2.66C653.4,1309.4,654.57,1308.25,656.08,1308.25z M669.18,1350.72h85.87v7.97
					c0,7.4-5.92,13.28-13.38,13.28H522.33c-7.46,0-13.38-5.88-13.38-13.28v-7.96h91.22c1.25,6.04,6.66,10.61,13.1,10.61h42.8
					C662.52,1361.35,667.93,1356.76,669.18,1350.72z M606.35,1350.74H663c-1.16,2.96-3.49,5.31-6.93,5.31h-42.8
					C609.84,1356.05,607.51,1353.7,606.35,1350.74z"/>
			</g>
		</g>
	</g>
	<text transform="matrix(1 0 0 1 316.1626 717.2324)" class="st2 st3">Lorem ipsum</text>
</g>
<text transform="matrix(0.596 0 0 1 311.749 701.584)" class="st4 st5 st6">TECHMAN</text>
<rect x="851.7" y="645.56" class="st7" width="18.6" height="5.81"/>
<text transform="matrix(1 0 0 1 395.292 805.8545)" class="st4 st8 st9">programming in veins</text>
</svg>
